<svg width="358" height="252" viewBox="0 0 358 252" fill="none" xmlns="http://www.w3.org/2000/svg">
<path d="M327.126 189.928L285.111 201.281L316.353 186.708C305.745 184.093 293.73 182.629 281.06 182.678C277.209 182.692 273.426 182.843 269.732 183.121C259.375 183.897 248.977 183.978 238.609 183.364L153.695 201.281L221.691 181.697C209.873 180.049 198.644 177.427 188.565 173.849C186.685 173.182 184.764 172.541 182.799 171.927L46.5213 215.888C46.5213 215.888 103.423 185.107 142.713 163.959C134.54 163.139 126.331 162.73 118.117 162.734C52.8827 162.734 0 187.961 0 219.079C0 231.369 8.24991 242.739 22.2497 252H314.289C340.126 246.167 358 233.62 358 219.079C358 207.209 345.799 196.59 327.126 189.928Z" fill="#F0F0F0"/>
<path d="M282.197 207.441C289.737 230.122 287.089 251.417 287.089 251.417C287.089 251.417 272.216 235.94 264.676 213.26C257.136 190.579 259.784 169.284 259.784 169.284C259.784 169.284 274.657 184.76 282.197 207.441Z" fill="#6C63FF"/>
<path d="M291.981 207.441C284.441 230.122 287.089 251.417 287.089 251.417C287.089 251.417 301.962 235.94 309.502 213.26C317.042 190.579 314.394 169.284 314.394 169.284C314.394 169.284 299.521 184.76 291.981 207.441Z" fill="#6C63FF"/>
<path d="M295.018 207.686C295.523 231.581 286.704 251.146 286.704 251.146C286.704 251.146 277.065 231.971 276.559 208.076C276.054 184.182 284.873 164.616 284.873 164.616C284.873 164.616 294.513 183.792 295.018 207.686Z" fill="#3F3D56"/>
<path d="M285.788 188.908C287.081 188.908 288.129 187.861 288.129 186.569C288.129 185.277 287.081 184.23 285.788 184.23C284.496 184.23 283.448 185.277 283.448 186.569C283.448 187.861 284.496 188.908 285.788 188.908Z" fill="#6C63FF"/>
<path d="M281.238 206.582C281.956 206.582 282.538 206 282.538 205.282C282.538 204.564 281.956 203.983 281.238 203.983C280.52 203.983 279.938 204.564 279.938 205.282C279.938 206 280.52 206.582 281.238 206.582Z" fill="#6C63FF"/>
<path d="M265.375 193.717C266.093 193.717 266.675 193.135 266.675 192.417C266.675 191.699 266.093 191.117 265.375 191.117C264.657 191.117 264.075 191.699 264.075 192.417C264.075 193.135 264.657 193.717 265.375 193.717Z" fill="#3F3D56"/>
<path d="M311.273 181.111C311.991 181.111 312.573 180.529 312.573 179.811C312.573 179.094 311.991 178.512 311.273 178.512C310.555 178.512 309.972 179.094 309.972 179.811C309.972 180.529 310.555 181.111 311.273 181.111Z" fill="#3F3D56"/>
<path d="M272.136 205.932C272.854 205.932 273.436 205.35 273.436 204.633C273.436 203.915 272.854 203.333 272.136 203.333C271.418 203.333 270.836 203.915 270.836 204.633C270.836 205.35 271.418 205.932 272.136 205.932Z" fill="#3F3D56"/>
<path d="M299.441 198.395C300.159 198.395 300.741 197.813 300.741 197.095C300.741 196.377 300.159 195.796 299.441 195.796C298.723 195.796 298.141 196.377 298.141 197.095C298.141 197.813 298.723 198.395 299.441 198.395Z" fill="#3F3D56"/>
<path d="M272.916 225.035C273.635 225.035 274.217 224.453 274.217 223.736C274.217 223.018 273.635 222.436 272.916 222.436C272.198 222.436 271.616 223.018 271.616 223.736C271.616 224.453 272.198 225.035 272.916 225.035Z" fill="#3F3D56"/>
<path d="M300.741 217.628C301.459 217.628 302.041 217.046 302.041 216.328C302.041 215.611 301.459 215.029 300.741 215.029C300.023 215.029 299.441 215.611 299.441 216.328C299.441 217.046 300.023 217.628 300.741 217.628Z" fill="#3F3D56"/>
<path d="M288.129 218.927C288.847 218.927 289.429 218.346 289.429 217.628C289.429 216.91 288.847 216.328 288.129 216.328C287.411 216.328 286.829 216.91 286.829 217.628C286.829 218.346 287.411 218.927 288.129 218.927Z" fill="#6C63FF"/>
<path d="M167.854 34.0859H167.854C171.614 34.0859 175.22 35.5787 177.878 38.2358C180.537 40.8929 182.03 44.4967 182.03 48.2544V65.704H153.678V48.2544C153.678 44.4967 155.172 40.8929 157.83 38.2358C160.489 35.5787 164.095 34.0859 167.854 34.0859Z" fill="#F7DF18"/>
<path d="M140.547 75.2492C140.547 75.2492 126.073 70.6258 123.685 74.8017C121.298 78.9777 123.088 85.2417 123.685 87.628C124.282 90.0142 128.759 118.053 140.696 110.596C152.634 103.139 140.547 75.2492 140.547 75.2492Z" fill="#3F3D56"/>
<path opacity="0.1" d="M140.547 75.2492C140.547 75.2492 126.073 70.6258 123.685 74.8017C121.298 78.9777 123.088 85.2417 123.685 87.628C124.282 90.0142 128.759 118.053 140.696 110.596C152.634 103.139 140.547 75.2492 140.547 75.2492Z" fill="black"/>
<path d="M137.712 84.9434H125.476C125.476 84.9434 119.122 81.9596 122.746 77.3367C126.371 72.7138 139.801 76.8897 139.801 76.8897L137.712 84.9434Z" fill="#FFB6B6"/>
<path d="M212.023 108.21L223.961 120.141C223.961 120.141 233.809 118.948 235.898 122.527C237.987 126.107 221.573 126.405 221.573 126.405L204.562 109.403L212.023 108.21Z" fill="#FFB6B6"/>
<path d="M142.785 141.617L140.398 164.287C140.398 164.287 141.293 177.113 135.921 184.869C130.549 192.624 125.774 223.347 125.774 223.347C125.774 223.347 119.507 237.963 125.177 238.858C130.848 239.753 130.848 229.313 130.848 229.313L134.131 217.68C134.131 217.68 142.487 202.467 145.471 191.729C145.471 191.729 154.723 178.008 154.723 171.446C154.723 164.884 158.304 141.617 158.304 141.617H142.785Z" fill="#FFB6B6"/>
<path d="M161.289 144.899L166.66 172.639C166.66 172.639 166.959 183.676 168.153 188.15C168.153 188.15 168.75 204.257 170.839 210.819C172.928 217.382 174.42 227.225 174.42 227.225L172.928 229.91L174.42 239.455L178.001 244.824L181.881 241.543L180.986 223.049C180.986 223.049 182.776 195.607 180.389 189.641L178.897 155.339L178.598 144.899H161.289Z" fill="#FFB6B6"/>
<path d="M152.037 78.0829L141.293 145.495C141.293 145.495 155.618 144.004 160.095 147.583C164.571 151.163 180.389 149.075 180.389 149.075L181.182 87.0711L175.912 75.1001L157.707 73.6086L152.037 78.0829Z" fill="#6C63FF"/>
<path d="M160.99 55.7116C160.99 55.7116 162.482 69.4327 160.99 70.9241C159.498 72.4155 177.106 70.9241 177.106 70.9241C177.106 70.9241 172.331 56.6065 172.928 54.8167C173.525 53.027 160.99 55.7116 160.99 55.7116Z" fill="#FFB6B6"/>
<path opacity="0.1" d="M160.99 55.7116C160.99 55.7116 162.482 69.4327 160.99 70.9241C159.498 72.4155 177.106 70.9241 177.106 70.9241C177.106 70.9241 172.331 56.6065 172.928 54.8167C173.525 53.027 160.99 55.7116 160.99 55.7116Z" fill="black"/>
<path d="M167.854 66.1516L160.99 62.8705C160.99 62.8705 157.409 61.6773 157.409 63.467C157.409 65.2567 155.021 65.555 155.917 67.3447C156.812 69.1344 162.781 75.3984 184.567 73.6087C184.567 73.6087 189.043 72.1173 194.117 75.6967C194.117 75.6967 191.431 68.8362 178.598 60.1859L167.854 66.1516Z" fill="#3F3D56"/>
<path d="M157.409 65.8533C157.409 65.8533 153.828 68.5378 153.828 69.1344C153.828 69.731 138.309 113.877 138.309 113.877C138.309 113.877 109.659 143.705 112.046 146.092C114.434 148.478 115.329 150.268 118.91 150.864C118.91 150.864 126.968 164.287 146.665 162.199L160.99 90.9091L166.362 79.2761C166.362 79.2761 164.87 128.195 169.048 128.195H174.42C174.42 128.195 175.017 165.48 178.3 165.48C181.582 165.48 184.865 164.287 184.567 162.796C184.268 161.304 183.672 146.092 183.672 146.092C183.672 146.092 192.028 150.566 192.028 147.881C192.028 145.197 189.043 123.422 189.043 123.422L187.253 71.5207L180.389 66.7481L157.409 65.8533Z" fill="#3F3D56"/>
<path d="M155.32 69.4327H153.828C151.769 69.3146 149.714 69.7254 147.859 70.6258L126.968 73.3103C126.968 73.3103 133.235 73.9069 134.429 81.0657C135.623 88.2246 136.816 92.6988 137.413 92.9971C138.01 93.2954 134.131 115.368 140.995 118.351C147.859 121.334 152.634 115.965 154.424 107.911C156.215 99.8577 162.482 72.7138 162.482 72.7138L155.32 69.4327Z" fill="#3F3D56"/>
<path d="M188.745 70.9241L194.714 75.6966C194.714 75.6966 195.012 79.5743 198.593 82.8554C202.175 86.1366 215.903 109.999 215.306 110.596C214.709 111.192 193.818 112.684 195.012 119.246C196.206 125.808 187.551 125.51 187.551 125.51L179.792 78.6795L188.745 70.9241Z" fill="#3F3D56"/>
<path d="M124.97 84.8504L105.166 65.4804C105.166 65.4804 89.4104 60.8508 92.2362 57.4322C95.062 54.0137 109.398 60.2036 109.398 60.2036L127.734 75.1628L126.058 84.5027C126.038 84.6183 125.986 84.726 125.908 84.8144C125.831 84.9027 125.731 84.9682 125.619 85.004C125.507 85.0397 125.388 85.0443 125.273 85.0173C125.159 84.9902 125.054 84.9325 124.97 84.8504Z" fill="#FFB6B6"/>
<path d="M122.79 226.032L118.91 239.455C118.91 239.455 115.627 249.98 122.79 250.875C129.952 251.77 128.46 245.804 128.46 245.804L129.378 236.394C129.378 236.394 123.815 240.825 123.387 234.98C123.15 231.217 123.923 227.458 125.625 224.093L122.79 226.032Z" fill="#2F2E41"/>
<path d="M175.315 249L174.42 244.824H172.629L171.137 243.332C171.137 243.332 172.928 236.77 171.734 233.787C170.54 230.805 171.137 227.523 174.42 227.225C174.42 227.225 172.331 236.174 177.404 240.946C177.404 240.946 182.065 243.65 181.823 240.359L181.881 236.638L183.075 241.543C183.075 241.543 183.97 246.315 185.462 247.508C186.954 248.702 186.059 251.386 181.881 250.79C177.703 250.193 175.315 249 175.315 249Z" fill="#2F2E41"/>
<path d="M166.511 78.5303C167.006 78.5303 167.407 78.1297 167.407 77.6355C167.407 77.1412 167.006 76.7406 166.511 76.7406C166.017 76.7406 165.616 77.1412 165.616 77.6355C165.616 78.1297 166.017 78.5303 166.511 78.5303Z" fill="#2F2E41"/>
<path d="M167.705 59.7384C173.474 59.7384 178.15 55.0643 178.15 49.2985C178.15 43.5326 173.474 38.8585 167.705 38.8585C161.936 38.8585 157.26 43.5326 157.26 49.2985C157.26 55.0643 161.936 59.7384 167.705 59.7384Z" fill="#FFB6B6"/>
<path d="M156.364 49.895L164.422 40.0516C164.422 40.0516 173.375 50.7898 179.643 50.4915L180.836 44.2276L174.868 38.2619L167.407 36.4722L160.244 37.9636L154.349 43.9396L156.364 49.895Z" fill="#F7DF18"/>
<path d="M228.997 36.3372C227.116 36.3373 225.292 36.9844 223.832 38.1697C222.372 39.355 221.365 41.0063 220.979 42.8463C220.594 44.6863 220.853 46.6028 221.715 48.2741C222.576 49.9453 223.986 51.2694 225.709 52.024C225.675 51.3942 225.723 50.7627 225.852 50.1454C226.009 49.4802 226.905 45.6827 226.905 45.6827C226.726 45.2751 226.636 44.834 226.642 44.3889C226.642 43.1755 227.344 42.2691 228.221 42.2691C228.967 42.2691 229.326 42.8283 229.326 43.4971C229.326 44.2464 228.847 45.3648 228.602 46.4028C228.553 46.5951 228.55 46.7961 228.593 46.9897C228.636 47.1834 228.725 47.3641 228.851 47.5174C228.977 47.6707 229.137 47.7923 229.318 47.8723C229.5 47.9523 229.698 47.9885 229.896 47.978C231.447 47.978 232.492 45.9861 232.492 43.625C232.492 41.8305 231.282 40.4891 229.084 40.4891C228.558 40.4685 228.034 40.555 227.542 40.7433C227.051 40.9317 226.603 41.218 226.226 41.5848C225.848 41.9517 225.55 42.3913 225.348 42.8772C225.146 43.363 225.045 43.8848 225.051 44.4108C225.027 44.9942 225.219 45.5658 225.592 46.0153C225.658 46.0693 225.704 46.1426 225.725 46.2247C225.746 46.3068 225.741 46.3935 225.709 46.4722C225.669 46.622 225.581 46.9839 225.541 47.1301C225.534 47.1743 225.516 47.2162 225.49 47.2523C225.464 47.2884 225.429 47.3177 225.389 47.3377C225.349 47.3577 225.305 47.3679 225.26 47.3674C225.215 47.3668 225.171 47.3557 225.131 47.3347C223.987 46.8669 223.453 45.6169 223.453 44.2061C223.453 41.8816 225.417 39.093 229.307 39.093C232.434 39.093 234.493 41.3553 234.493 43.7822C234.493 46.9948 232.705 49.3924 230.072 49.3924C229.68 49.4028 229.291 49.3148 228.942 49.1367C228.592 48.9586 228.293 48.696 228.071 48.3727C228.071 48.3727 227.596 50.2586 227.494 50.6241C227.305 51.2452 227.027 51.8359 226.671 52.3785C227.798 52.7111 228.983 52.7976 230.146 52.6322C231.309 52.4668 232.422 52.0534 233.411 51.42C234.401 50.7865 235.242 49.9479 235.878 48.9609C236.514 47.974 236.931 46.8618 237.099 45.6998C237.268 44.5378 237.184 43.3532 236.855 42.2263C236.525 41.0994 235.956 40.0566 235.188 39.1686C234.419 38.2806 233.469 37.5682 232.4 37.0796C231.332 36.5911 230.171 36.3379 228.997 36.3372L228.997 36.3372Z" fill="#3F3D56"/>
<path d="M85.6136 1.66298C84.9672 1.94868 84.2821 2.13713 83.5804 2.22218C84.3203 1.77973 84.874 1.08346 85.1382 0.263154C84.4435 0.67649 83.6827 0.967045 82.8893 1.12206C82.4041 0.603199 81.7739 0.242308 81.0807 0.0863512C80.3875 -0.0696059 79.6634 -0.0134089 79.0026 0.247627C78.3417 0.508664 77.7748 0.962454 77.3756 1.54995C76.9764 2.13744 76.7633 2.83143 76.7641 3.54162C76.7628 3.81351 76.7935 4.08462 76.8556 4.34935C75.4469 4.27962 74.0688 3.91384 72.8112 3.27588C71.5535 2.63793 70.4445 1.74213 69.5566 0.646923C69.1036 1.42725 68.9653 2.35082 69.1698 3.22952C69.3743 4.10821 69.9063 4.87595 70.6573 5.37636C70.0929 5.36244 69.5405 5.2106 69.0483 4.93411V4.97797C69.0481 5.79557 69.331 6.58805 69.8489 7.22093C70.3668 7.85382 71.0878 8.28811 71.8896 8.45011C71.5857 8.53254 71.2721 8.57433 70.9572 8.57438C70.7337 8.57476 70.5107 8.55272 70.2916 8.5086C70.5178 9.2123 70.9584 9.82773 71.5518 10.2688C72.1452 10.7098 72.8617 10.9544 73.601 10.9683C72.3468 11.9536 70.7971 12.488 69.2019 12.4851C68.9196 12.4847 68.6375 12.4676 68.3572 12.4339C69.9696 13.4827 71.8528 14.039 73.7765 14.0348C80.2966 14.0348 83.8583 8.6365 83.8583 3.95459C83.8583 3.80108 83.8547 3.64758 83.8474 3.49772C84.5405 2.99581 85.1385 2.37453 85.6136 1.66298Z" fill="#3F3D56"/>
<path d="M236.665 93.0166H224.173C223.967 93.0167 223.77 93.0984 223.625 93.2437C223.48 93.3889 223.398 93.586 223.398 93.7914V106.277C223.398 106.482 223.48 106.679 223.625 106.824C223.77 106.97 223.967 107.051 224.173 107.051H230.419V101.496H228.74V99.4492H230.419V97.9361C230.419 96.1233 231.677 95.1364 233.297 95.1364C234.072 95.1364 234.906 95.1949 235.1 95.2205V97.1137H233.809C232.927 97.1137 232.759 97.5304 232.759 98.1444V99.4492H234.858L234.584 101.496H232.759V107.051H236.665C236.87 107.051 237.067 106.97 237.213 106.824C237.358 106.679 237.44 106.482 237.44 106.277V93.7914C237.44 93.586 237.358 93.3889 237.213 93.2437C237.067 93.0984 236.87 93.0167 236.665 93.0166Z" fill="#3F3D56"/>
<path d="M102.145 35.2642C102.92 35.2664 103.663 35.5752 104.211 36.1231C104.759 36.6709 105.068 37.4133 105.07 38.1881V44.0359C105.068 44.8107 104.759 45.5531 104.211 46.1009C103.663 46.6488 102.92 46.9576 102.145 46.9598H96.2939C95.5187 46.9576 94.7759 46.6488 94.2278 46.1009C93.6796 45.5531 93.3707 44.8107 93.3684 44.0359V38.1881C93.3707 37.4133 93.6796 36.6709 94.2278 36.1231C94.7759 35.5752 95.5187 35.2664 96.2939 35.2642H102.145V35.2642ZM102.145 34.0946H96.2939C95.2086 34.0978 94.1687 34.5301 93.4013 35.2971C92.6339 36.0641 92.2014 37.1034 92.1982 38.1881V44.0359C92.2014 45.1206 92.6339 46.16 93.4013 46.9269C94.1687 47.6939 95.2086 48.1262 96.2939 48.1294H102.145C103.23 48.1262 104.27 47.6939 105.037 46.9269C105.805 46.16 106.237 45.1206 106.24 44.0359V38.1881C106.237 37.1034 105.805 36.0641 105.037 35.2971C104.27 34.5301 103.23 34.0978 102.145 34.0946Z" fill="#3F3D56"/>
<path d="M103.022 38.1881C102.849 38.1881 102.679 38.1366 102.535 38.0402C102.391 37.9439 102.278 37.8069 102.212 37.6466C102.145 37.4863 102.128 37.3099 102.162 37.1398C102.196 36.9696 102.279 36.8133 102.402 36.6906C102.525 36.568 102.681 36.4844 102.851 36.4506C103.022 36.4167 103.198 36.4341 103.358 36.5005C103.519 36.5669 103.656 36.6793 103.752 36.8236C103.849 36.9678 103.9 37.1374 103.9 37.3109C103.9 37.4262 103.878 37.5404 103.834 37.6469C103.79 37.7535 103.725 37.8503 103.644 37.9318C103.562 38.0133 103.465 38.0779 103.359 38.1219C103.252 38.1659 103.138 38.1883 103.022 38.1881ZM99.2194 38.7729C99.6823 38.7729 100.135 38.91 100.52 39.1671C100.905 39.4241 101.204 39.7894 101.382 40.2168C101.559 40.6443 101.605 41.1146 101.515 41.5683C101.424 42.0221 101.202 42.4389 100.874 42.766C100.547 43.0931 100.13 43.3159 99.676 43.4062C99.222 43.4964 98.7514 43.4501 98.3238 43.2731C97.8961 43.096 97.5306 42.7962 97.2735 42.4115C97.0163 42.0269 96.879 41.5746 96.879 41.112C96.8796 40.4918 97.1264 39.8972 97.5652 39.4586C98.0039 39.0201 98.5989 38.7734 99.2194 38.7729ZM99.2194 37.6033C98.5251 37.6033 97.8464 37.8091 97.2691 38.1946C96.6918 38.5801 96.2418 39.1281 95.9761 39.7693C95.7104 40.4104 95.6409 41.1159 95.7763 41.7965C95.9118 42.4771 96.2461 43.1023 96.7371 43.593C97.228 44.0837 97.8536 44.4179 98.5345 44.5533C99.2155 44.6887 99.9214 44.6192 100.563 44.3536C101.204 44.088 101.753 43.6383 102.138 43.0613C102.524 42.4843 102.73 41.8059 102.73 41.112C102.73 40.1815 102.36 39.2892 101.701 38.6312C101.043 37.9733 100.15 37.6035 99.2194 37.6033Z" fill="#3F3D56"/>
<path d="M265.235 64.1H253.518C253.368 64.0927 253.217 64.1152 253.075 64.1663C252.933 64.2173 252.803 64.2958 252.691 64.3974C252.58 64.4989 252.49 64.6214 252.426 64.7579C252.362 64.8944 252.325 65.0422 252.319 65.1928V76.9286C252.327 77.2444 252.456 77.545 252.679 77.7687C252.902 77.9923 253.202 78.122 253.518 78.1311H265.231C265.539 78.119 265.83 77.9861 266.041 77.761C266.252 77.5359 266.365 77.2368 266.357 76.9286V65.1928C266.36 65.0461 266.332 64.9005 266.276 64.7649C266.22 64.6292 266.137 64.5065 266.032 64.4041C265.927 64.3018 265.802 64.222 265.665 64.1697C265.528 64.1174 265.381 64.0936 265.235 64.1ZM256.67 75.7956H254.659V69.5458H256.67V75.7956ZM255.734 68.5955H255.72C255.43 68.5935 255.153 68.477 254.95 68.2715C254.746 68.066 254.632 67.7882 254.633 67.4989C254.634 67.2097 254.75 66.9327 254.955 66.7285C255.16 66.5243 255.437 66.4097 255.727 66.4097C256.016 66.4097 256.294 66.5243 256.499 66.7285C256.704 66.9327 256.819 67.2097 256.82 67.4989C256.821 67.7882 256.707 68.066 256.504 68.2715C256.3 68.477 256.024 68.5935 255.734 68.5955ZM264.02 75.7956H262.009V72.3783C262.009 71.5596 261.717 71.0004 260.989 71.0004C260.761 71.0023 260.54 71.0747 260.355 71.2076C260.171 71.3405 260.032 71.5273 259.958 71.7423C259.904 71.9011 259.881 72.0684 259.888 72.2358V75.7956H257.877V69.5458H259.888V70.4156C260.071 70.099 260.336 69.8375 260.656 69.6587C260.975 69.4799 261.336 69.3904 261.702 69.3996C263.022 69.3996 264.02 70.2694 264.02 72.1444L264.02 75.7956Z" fill="#3F3D56"/>
</svg>
