<svg width="276" height="253" viewBox="0 0 276 253" fill="none" xmlns="http://www.w3.org/2000/svg">
<g clip-path="url(#clip0)">
<path opacity="0.1" d="M154.615 39.5708C139.487 39.0468 125.079 34.1695 111.328 28.8376C97.5778 23.5058 83.9346 17.5899 69.1698 14.7488C59.6721 12.9304 48.8126 12.6716 41.16 17.7572C33.7982 22.6534 31.4159 31.1042 30.1394 38.9458C29.1915 44.8459 28.6101 51.0553 31.2484 56.5766C33.0778 60.4121 36.329 63.6352 38.5755 67.3098C46.3986 80.0886 40.8694 95.8474 32.3922 108.326C28.4174 114.179 23.8044 119.763 20.7364 126.004C17.6685 132.246 16.2467 139.374 18.9323 145.731C21.5927 152.045 27.934 156.761 34.8029 160.092C48.7557 166.851 65.1951 168.786 81.2269 169.878C116.715 172.302 152.39 171.254 187.974 170.194C201.14 169.802 214.366 169.408 227.32 167.375C234.515 166.244 241.943 164.451 247.166 160.114C253.801 154.618 255.437 145.315 250.995 138.423C243.542 126.866 222.941 123.994 217.731 111.59C214.865 104.762 217.81 97.1575 221.974 90.8281C230.913 77.2537 245.892 65.3273 246.682 49.7894C247.226 39.1289 240.022 28.4493 228.887 23.4016C217.216 18.1139 201.029 18.78 192.419 27.5339C183.553 36.5687 167.97 40.0349 154.615 39.5708Z" fill="#6C63FF"/>
<path opacity="0.1" d="M124.567 253C177.61 253 220.609 247.188 220.609 240.019C220.609 232.85 177.61 227.038 124.567 227.038C71.5243 227.038 28.5248 232.85 28.5248 240.019C28.5248 247.188 71.5243 253 124.567 253Z" fill="#6C63FF"/>
<path d="M148.27 66.167C148.27 66.167 145.297 60.3048 145.698 58.5622C146.1 56.8196 143.607 53.0977 143.607 53.0977L143.768 46.923C143.768 46.923 143.423 47.5544 141.629 48.1068C141.477 47.9079 141.313 47.7122 141.142 47.526C140.492 46.8498 139.77 46.2474 138.987 45.7297L135.828 38.9173L132.772 34.2421C132.772 34.2421 127.954 24.4559 122.978 22.2967L122.194 20.7656C122.22 20.7504 122.239 20.7261 122.248 20.6975C122.257 20.6688 122.254 20.638 122.241 20.6109L121.445 19.0546C121.431 19.0277 121.407 19.007 121.379 18.9965C121.35 18.986 121.319 18.9865 121.29 18.9978L120.529 17.5078C120.238 15.5768 119.479 13.7463 118.317 12.1759C118.238 12.0654 118.153 11.9644 118.071 11.8602L119.309 11.816C120.396 11.775 121.61 11.6803 122.339 10.869C122.601 10.5666 122.794 10.2112 122.905 9.82724C122.999 9.52633 123.06 9.21625 123.088 8.90229C123.088 8.85494 123.088 8.80759 123.088 8.76339C123.088 8.65606 123.088 8.55083 123.088 8.44771C123.088 8.36247 123.088 8.2804 123.088 8.19516C123.088 8.10993 123.088 8.05942 123.088 7.99313C123.088 7.92683 123.054 7.77531 123.035 7.67744C123.035 7.6364 123.035 7.59537 123.009 7.55433C122.983 7.43067 122.95 7.30844 122.911 7.18814C122.902 7.16454 122.895 7.14027 122.889 7.11553C122.845 6.98926 122.798 6.86298 122.744 6.73987C122.735 6.72364 122.728 6.70675 122.722 6.68936C122.665 6.56624 122.602 6.44629 122.535 6.32948L122.516 6.2916C122.493 6.2426 122.467 6.19515 122.437 6.14955C121.581 4.80474 120.077 4.01869 118.646 3.30841C117.31 2.60681 115.939 1.9746 114.538 1.41432C109.33 -0.53736 103.576 -0.456203 98.4245 1.64161C97.9157 1.8341 97.4336 2.09084 96.99 2.40556C96.3717 2.92848 95.8434 3.54913 95.426 4.24283L92.9773 7.85738C92.6352 8.29708 92.3673 8.78973 92.1843 9.31583C91.7261 11.0331 93.1637 12.7536 93.0026 14.5246C92.9205 15.4053 92.4465 16.2135 92.3549 17.0942C92.238 18.2307 92.7656 19.3261 93.2807 20.3521L96.7846 27.2971C96.5982 28.2094 96.3928 29.1438 96.1685 30.0467C94.554 31.7135 94.0105 32.6226 93.862 33.1151L93.8146 33.1403C93.4949 33.3467 93.2198 33.615 93.0058 33.9295L89.6756 37.1621C89.6756 37.1621 83.8872 38.6648 82.6834 40.5683C82.6834 40.5683 73.5995 40.1706 73.6785 52.8452C73.6785 52.8452 73.2773 57.5994 73.0466 58.2339C72.816 58.8684 73.0466 65.2831 73.0466 65.2831L72.9392 78.2765C72.9392 78.2765 72.5916 85.1679 72.9392 87.6239C73.2867 90.0799 73.688 99.4272 73.688 99.4272C73.688 99.4272 75.8587 108.538 75.0561 111.786C74.2852 114.896 75.0561 121.695 76.32 121.724C76.5601 122.219 76.835 122.462 77.1351 122.324C77.2658 122.267 77.3998 122.219 77.5364 122.178V129.941C77.5364 129.941 75.9724 140.816 77.726 142.884C76.5632 144.538 75.1983 147.36 74.8507 148.102L62.5599 147.442L60.9959 147.881L59.5615 148.282L58.6926 168.255L59.0401 168.281L59.0149 168.89L59.8364 168.95L58.6926 189.065L75.707 190.464C74.9582 192.14 74.0893 193.936 73.7512 194.11C73.1193 194.425 71.7417 193.478 71.4194 193.87C71.0971 194.261 70.1335 194.741 69.0087 194.501C67.8838 194.261 67.1603 195.53 67.1603 195.53C67.1603 195.53 67.3246 195.675 67.571 195.944C65.7448 195.723 63.4351 196.701 62.1808 197.333C61.6184 197.617 61.2676 197.828 61.2676 197.828H57.9501L59.7732 209.449L61.0591 210.326L61.3751 219.481C61.3751 219.481 66.5189 235.325 68.876 235.221C69.029 235.215 69.1791 235.177 69.3159 235.108C69.4528 235.04 69.5732 234.943 69.669 234.823C70.9328 233.365 70.0576 228.355 70.0576 228.355V220.014C70.0576 220.014 71.985 219.168 71.7701 218.534C71.5553 217.899 74.8792 210.958 75.1762 210.326C75.1847 210.321 75.1915 210.313 75.196 210.305C75.2005 210.296 75.2024 210.286 75.2015 210.276C75.2015 209.562 76.6486 208.77 76.5664 208.454C76.4843 208.139 80.1052 206.156 80.3579 204.413C80.6107 202.671 83.0088 203.621 83.0088 203.621L86.061 200.117C86.1526 204.388 86.3264 207.378 86.6266 208.135C88.0736 211.781 88.636 217.486 88.636 217.486C88.636 217.486 87.7514 221.842 88.636 223.269C89.1795 224.14 90.4433 225.075 91.3217 225.848C90.4086 228.614 90.5381 234.492 90.5381 234.492V237.869L97.2902 239.764C97.2902 239.764 97.5019 238.075 97.8242 238.075C98.1464 238.075 102.434 241.348 102.434 241.348C102.434 241.348 118.94 241.56 123.117 241.348C124.697 241.269 125.126 240.591 124.883 239.77C124.482 238.403 122.229 236.632 120.226 236.496C117.009 236.285 112.936 232.907 112.936 232.907C112.936 232.907 113.252 232.165 111.543 231.111C110.361 230.385 107.091 227.446 105.069 225.725C105.164 225.596 105.262 225.466 105.353 225.327C105.353 225.327 102.62 221.539 103.186 219.86C103.752 218.18 102.943 215.756 102.943 215.756C102.943 215.756 101.417 211.081 101.417 208.704C101.417 207.198 101.189 198.633 101.025 192.56L102.434 192.676L102.462 192.07L103.094 192.127L109.069 192.676L108.886 186.297C111.764 185.034 114.159 183.863 115.151 183.114C118.526 180.589 121.42 180.422 121.42 180.422C121.42 180.422 128.251 176.779 129.297 175.273C130.343 173.767 130.245 162.835 130.245 162.835L129.682 139.405V139.386C129.682 139.386 129.202 128.06 128.235 125.604C127.881 124.694 127.006 121.664 126.049 118.204C126.599 118.147 127.155 118.171 127.698 118.273C127.733 119.119 127.755 119.7 127.755 119.899C127.755 121.244 129.682 122.387 129.682 122.387L128.317 92.0813V71.4641C132.526 72.8026 142.703 73.2193 142.703 73.2193C150.036 72.8342 148.27 66.167 148.27 66.167ZM108.573 40.1295H108.551C108.7 39.335 108.896 38.5498 109.135 37.7777L108.573 40.1295ZM80.9519 144.074C83.4448 144.484 86.3232 144.365 86.5412 143.882C86.5634 143.834 86.5918 143.749 86.6297 143.638C86.7087 143.777 86.7845 143.919 86.8635 144.065L86.6202 148.636V148.74L78.4053 148.298C78.9803 145.851 80.0672 144.658 80.9519 144.074ZM108.336 167.138L108.124 159.735C108.491 158.371 108.82 157.134 109.101 156.073C109.227 156.954 109.335 157.765 109.417 158.513C110.194 165.537 109.047 166.907 108.336 167.138ZM131.717 56.1504C131.246 56.3303 129.455 55.2033 127.755 54.0353C127.755 53.8207 127.771 53.6091 127.78 53.4039C128.02 48.5709 120.144 45.5624 117.733 45.0068C117.148 44.856 116.58 44.6444 116.039 44.3755C114.755 43.7398 113.506 43.0348 112.298 42.2635L112.33 42.172C112.33 42.172 109.221 40.2053 109.154 37.7524C109.863 35.5214 110.757 33.3535 111.827 31.2715C111.887 31.1484 111.954 31.019 112.017 30.8958C113.486 30.4393 114.858 29.7135 116.061 28.7555C116.545 35.0692 125.689 40.502 125.689 40.502L126.665 42.0804L126.896 42.4529C126.403 42.7434 126.166 42.977 126.333 43.1127C127.028 43.6683 128.709 46.8125 129.404 48.1415C129.594 48.5014 129.72 48.7255 129.72 48.7255C129.72 48.7255 131.215 52.7884 132.071 56.1883C131.957 56.1408 131.832 56.1276 131.711 56.1504H131.717Z" fill="url(#paint0_linear)"/>
<path d="M135.25 39.7759L135.142 39.9179L134.776 40.4072L127.746 45.3698L126.254 42.9201L125.306 41.3417C125.306 41.3417 111.294 32.9445 117.319 24.8504C123.344 16.7564 132.248 35.1101 132.248 35.1101L135.25 39.7759Z" fill="#FFC5D3"/>
<path d="M121.111 20.0023C121.081 19.9431 121.009 19.9193 120.949 19.9491C120.89 19.9789 120.866 20.051 120.896 20.1102L121.678 21.6609C121.708 21.7201 121.78 21.7439 121.839 21.7141C121.898 21.6843 121.922 21.6122 121.892 21.553L121.111 20.0023Z" fill="#3A3768"/>
<path d="M113.088 22.1704L113.085 22.1718C113.053 22.1883 113.039 22.2282 113.056 22.2609L113.289 22.7233C113.305 22.756 113.345 22.7691 113.378 22.7527L113.381 22.7512C113.414 22.7348 113.427 22.6949 113.41 22.6622L113.177 22.1998C113.161 22.1671 113.121 22.154 113.088 22.1704Z" fill="#3A3768"/>
<path d="M113.726 23.2654C113.707 23.228 113.662 23.213 113.624 23.2318C113.587 23.2506 113.572 23.2962 113.591 23.3335L114.033 24.2104C114.052 24.2478 114.097 24.2628 114.135 24.244C114.172 24.2252 114.187 24.1796 114.168 24.1422L113.726 23.2654Z" fill="#3A3768"/>
<path d="M114.408 24.6301C114.39 24.5943 114.346 24.5799 114.31 24.598C114.274 24.616 114.26 24.6596 114.278 24.6955L114.727 25.5864C114.745 25.6222 114.789 25.6366 114.825 25.6186C114.86 25.6006 114.875 25.5569 114.857 25.5211L114.408 24.6301Z" fill="#3A3768"/>
<path d="M118.659 16.9575L112.755 19.9279C112.406 20.1036 112.266 20.5287 112.441 20.8775L119.141 34.1685C119.316 34.5173 119.742 34.6577 120.091 34.482L125.995 31.5116C126.344 31.3359 126.484 30.9108 126.308 30.562L119.609 17.271C119.433 16.9222 119.008 16.7818 118.659 16.9575Z" fill="#3A3768"/>
<path d="M117.903 17.8013C117.87 17.8181 117.839 17.8414 117.815 17.8699C117.79 17.8984 117.771 17.9316 117.759 17.9674C117.748 18.0033 117.743 18.0411 117.746 18.0787C117.749 18.1163 117.76 18.1529 117.777 18.1865L117.802 18.2401C117.82 18.2739 117.83 18.3107 117.833 18.3486C117.836 18.3864 117.832 18.4245 117.82 18.4606C117.808 18.4967 117.79 18.5301 117.765 18.5589C117.74 18.5877 117.71 18.6114 117.676 18.6284L114.636 20.1563C114.603 20.1736 114.566 20.1841 114.528 20.1872C114.491 20.1902 114.453 20.1857 114.417 20.1739C114.381 20.1622 114.348 20.1434 114.319 20.1187C114.291 20.094 114.268 20.0638 114.251 20.03L114.222 19.9764C114.206 19.9426 114.182 19.9124 114.154 19.8876C114.125 19.8628 114.092 19.8439 114.057 19.8319C114.021 19.8199 113.983 19.815 113.945 19.8176C113.908 19.8202 113.871 19.8301 113.837 19.8469L113.246 20.1468C113.181 20.1787 113.124 20.2231 113.076 20.2775C113.029 20.3319 112.993 20.3952 112.97 20.4636C112.947 20.5321 112.939 20.6044 112.944 20.6763C112.95 20.7482 112.97 20.8182 113.003 20.8824L119.461 33.6896C119.527 33.8193 119.642 33.9176 119.781 33.9631C119.919 34.0086 120.07 33.9977 120.2 33.9327L125.502 31.2651C125.632 31.1989 125.73 31.0841 125.776 30.9458C125.822 30.8075 125.811 30.6568 125.745 30.5264L119.284 17.7129C119.252 17.6484 119.207 17.5909 119.152 17.5438C119.097 17.4966 119.034 17.4607 118.965 17.4382C118.896 17.4156 118.824 17.4068 118.752 17.4122C118.68 17.4176 118.609 17.4372 118.545 17.4699L117.903 17.8013Z" fill="#6C63FF"/>
<path d="M116.137 18.7712L115.339 19.173C115.282 19.2012 115.26 19.2696 115.288 19.3256C115.316 19.3817 115.385 19.4042 115.441 19.376L116.239 18.9742C116.296 18.9459 116.318 18.8776 116.29 18.8216C116.262 18.7655 116.193 18.7429 116.137 18.7712Z" fill="#E6E8EC"/>
<path d="M116.551 18.8083C116.623 18.8083 116.681 18.7503 116.681 18.6789C116.681 18.6074 116.623 18.5494 116.551 18.5494C116.48 18.5494 116.422 18.6074 116.422 18.6789C116.422 18.7503 116.48 18.8083 116.551 18.8083Z" fill="#E6E8EC"/>
<path d="M122.453 66.9246L120.478 119.871C120.478 119.871 127.114 117.661 128.14 119.318C129.167 120.976 127.035 92.801 127.035 92.801L122.453 66.9246Z" fill="#5F5570"/>
<path opacity="0.15" d="M122.453 66.9246L120.478 119.871C120.478 119.871 127.114 117.661 128.14 119.318C129.167 120.976 127.035 92.801 127.035 92.801L122.453 66.9246Z" fill="black"/>
<path d="M122.769 241.443C118.662 241.654 102.444 241.443 102.444 241.443C102.444 241.443 98.2286 238.182 97.9127 238.182C97.5967 238.182 97.3882 239.864 97.3882 239.864L90.753 237.97V234.605C90.753 234.605 90.5414 225.024 92.5414 224.608C94.5414 224.191 103.391 224.608 103.391 224.608C103.707 224.503 109.711 230.186 111.395 231.237C113.079 232.288 112.763 233.027 112.763 233.027C112.763 233.027 116.766 236.392 119.926 236.603C121.894 236.736 124.109 238.498 124.504 239.864C124.744 240.688 124.317 241.364 122.769 241.443Z" fill="#BC8487"/>
<path opacity="0.1" d="M122.769 241.443C118.662 241.655 102.444 241.443 102.444 241.443C102.444 241.443 98.2287 238.182 97.9127 238.182C97.5967 238.182 97.3882 239.865 97.3882 239.865L90.7531 237.971V234.672L96.9648 236.919L101.916 239.865H124.504C124.744 240.689 124.317 241.364 122.769 241.443Z" fill="black"/>
<g opacity="0.1">
<path d="M104.327 236.499C104.327 236.499 109.382 231.66 112.763 233.027L104.327 236.499Z" fill="black"/>
<path d="M104.327 236.499C104.327 236.499 109.382 231.66 112.763 233.027" stroke="black" stroke-miterlimit="10"/>
</g>
<path d="M72.3199 218.714C72.5316 219.345 70.6358 220.188 70.6358 220.188V228.5C70.6358 228.5 71.4952 233.491 70.2535 234.946C70.1603 235.064 70.0425 235.161 69.9083 235.229C69.7741 235.297 69.6267 235.335 69.4763 235.341C67.1603 235.445 62.1049 219.661 62.1049 219.661L61.789 210.541L60.5251 209.666L58.7336 198.09H62.0007C62.0007 198.09 62.3451 197.879 62.898 197.595C64.4778 196.79 67.7859 195.385 69.5837 196.723L75.6912 210.471C75.6912 210.471 72.1114 218.082 72.3199 218.714Z" fill="#BC8487"/>
<path opacity="0.1" d="M70.2535 234.946C70.1603 235.064 70.0425 235.161 69.9083 235.229C69.7741 235.297 69.6267 235.335 69.4763 235.341C67.1603 235.445 62.1049 219.661 62.1049 219.661L61.789 210.541L60.5251 209.666L58.7336 198.09H62.0007C62.0007 198.09 62.3451 197.879 62.898 197.595L63.6847 209.455L64.105 219.661C64.105 219.661 68.0734 230.773 70.2535 234.946Z" fill="black"/>
<path d="M128.851 175.598C127.825 177.097 121.11 180.728 121.11 180.728C121.11 180.728 118.267 180.886 114.949 183.411C113.234 184.718 107.271 187.31 101.916 189.51C96.9142 191.565 92.4371 193.276 92.4371 193.276L87.2806 199.274L83.3532 203.842C83.3532 203.842 80.9835 202.895 80.7466 204.631C80.5096 206.367 76.9551 208.34 77.034 208.656C77.113 208.972 75.6912 209.761 75.6912 210.471C75.6912 211.182 70.3989 205.342 70.4779 201.79C70.5569 198.239 67.7922 195.792 67.7922 195.792C67.7922 195.792 68.5031 194.529 69.609 194.766C70.7149 195.003 71.6627 194.529 71.9787 194.135C72.2947 193.74 73.6375 194.687 74.2694 194.372C74.9013 194.056 77.429 187.821 77.429 187.821L87.2775 181.22L106.867 168.101L107.771 167.494C107.771 167.494 110.377 168.688 109.319 158.911C109.113 157.017 108.769 154.716 108.245 151.912C105.006 134.629 116.617 132.656 116.617 132.656L126.807 136.049L129.256 139.838V139.856L129.809 163.198C129.809 163.198 129.878 174.098 128.851 175.598Z" fill="#433A59"/>
<path opacity="0.1" d="M101.837 186.647C101.837 186.647 101.868 187.767 101.916 189.51C96.9142 191.565 92.4371 193.276 92.4371 193.276L87.2806 199.274C87.1953 194.302 87.2143 187.843 87.2806 181.223L106.87 168.104C104.447 177.078 101.837 186.647 101.837 186.647Z" fill="black"/>
<path opacity="0.1" d="M129.246 139.847V139.866L113.922 140.163C113.922 140.163 111.237 150.659 110.842 152.869C110.744 153.412 110.15 155.732 109.309 158.921C109.104 157.026 108.76 154.725 108.235 151.922C104.997 134.638 116.608 132.665 116.608 132.665L126.798 136.059L129.246 139.847Z" fill="black"/>
<path d="M88.8825 111.199L86.9078 149.081C86.9078 149.081 85.486 204.72 86.9078 208.35C88.3296 211.98 88.8825 217.663 88.8825 217.663C88.8825 217.663 88.0137 222.003 88.8825 223.424C89.7514 224.844 92.5161 226.423 92.4371 227.212C92.3581 228.001 100.889 232.263 105.312 225.476C105.312 225.476 102.627 221.688 103.18 220.03C103.733 218.373 102.943 215.926 102.943 215.926C102.943 215.926 101.442 211.27 101.442 208.893C101.442 206.516 100.889 186.637 100.889 186.637C100.889 186.637 109.499 155.069 109.894 152.859C110.289 150.65 112.974 140.153 112.974 140.153L129.246 139.838C129.246 139.838 128.772 128.552 127.825 126.105C126.877 123.659 122.216 105.744 122.216 105.744L88.8825 111.199Z" fill="#433A59"/>
<path d="M61.7258 148.336L60.3135 148.74L60.2566 150.135L102.601 150.681V150.132L61.7258 148.336Z" fill="#7B728F"/>
<path d="M111.673 32.1585C105.511 44.6437 109.338 47.2544 109.948 47.5764C108.643 46.9703 91.6819 39.0088 93.9126 36.9884C95.3629 35.672 96.6046 29.9456 97.3344 25.8417C97.7673 23.392 98.0201 21.52 98.0201 21.52L115.818 24.781C114.093 27.559 112.722 30.0055 111.673 32.1585Z" fill="#FFC5D3"/>
<path opacity="0.1" d="M135.155 39.918L134.788 40.4073L127.745 45.3698L126.254 42.9201C128.425 41.6574 134.934 39.4476 134.934 39.4476L135.155 39.918Z" fill="black"/>
<path d="M141.648 51.2982C141.016 53.508 130.352 51.2982 130.352 51.2982L129.246 49.562C129.246 49.562 129.136 49.341 128.949 48.9811C128.267 47.6584 126.614 44.5268 125.932 43.9712C125.063 43.261 135.253 39.7885 135.253 39.7885L138.374 46.5756C139.144 47.0925 139.854 47.6928 140.491 48.3655C141.281 49.221 141.935 50.2912 141.648 51.2982Z" fill="#E5E8EF"/>
<path d="M123.954 52.3148C123.954 52.3148 130.273 57.2963 131.221 56.9364C132.169 56.5765 147.493 66.9151 147.493 66.9151C147.493 66.9151 149.231 73.5444 142.043 73.939C142.043 73.939 126.798 73.3077 126.166 71.0979C125.534 68.8881 123.954 52.3148 123.954 52.3148Z" fill="#5F5570"/>
<path opacity="0.1" d="M106.734 42.3013L99.8621 49.4042L109.499 110.646L113.29 108.437C113.29 108.437 123.085 112.777 123.875 108.752C124.665 104.727 124.447 88.8644 124.447 88.8644L123.164 60.2068C123.164 60.2068 118.662 50.1839 118.662 49.8682C118.662 49.5526 112.169 44.6595 112.169 44.6595L109.104 42.2919L106.734 42.3013Z" fill="black"/>
<path d="M106.734 41.3543L99.8621 48.4572L109.499 109.699L113.29 107.49C113.29 107.49 123.085 111.83 123.875 107.805C124.665 103.78 124.447 87.9174 124.447 87.9174L123.164 59.2598C123.164 59.2598 118.662 49.2369 118.662 48.9212C118.662 48.6055 112.169 43.7125 112.169 43.7125L109.104 41.3448L106.734 41.3543Z" fill="#E5E8EF"/>
<path opacity="0.1" d="M107.129 42.3803L105.233 46.2474L107.129 48.2457C107.129 48.2457 113.922 61.9526 112.579 70.0814L114.001 96.8354L118.583 101.334L122.216 97.1416L120.478 72.8341C120.478 72.8341 115.818 52.7883 110.921 46.5536L109.499 41.0292L107.129 42.3803Z" fill="black"/>
<path d="M107.129 41.7489L105.233 45.616L107.129 47.6143C107.129 47.6143 113.922 61.3212 112.579 69.45L114.001 96.2041L118.583 100.703L122.216 96.5103L120.478 72.2028C120.478 72.2028 115.818 52.157 110.921 45.9223L109.499 40.3978L107.129 41.7489Z" fill="#BC8487"/>
<path opacity="0.1" d="M115.818 24.7811C114.093 27.5591 112.734 30.0056 111.673 32.1585C110.554 32.488 109.394 32.6549 108.229 32.6542C104.323 32.6542 102.074 29.9551 99.862 27.0887C99.3565 26.4384 97.6945 26.5899 97.3344 25.826C97.7672 23.3763 98.02 21.5043 98.02 21.5043L115.818 24.7811Z" fill="black"/>
<path d="M120.339 20.2351C120.339 23.1169 119.31 25.904 117.436 28.0949C115.562 30.2857 112.968 31.7366 110.119 32.1863C107.27 32.6361 104.354 32.0551 101.895 30.5481C99.4369 29.0411 97.5975 26.7069 96.7082 23.9656C95.8188 21.2242 95.9379 18.2558 97.0439 15.5943C98.15 12.9329 100.17 10.7533 102.742 9.44762C105.313 8.14197 108.266 7.79605 111.07 8.47211C113.874 9.14816 116.344 10.8018 118.036 13.1355C119.533 15.2004 120.34 17.6852 120.339 20.2351Z" fill="#FFC5D3"/>
<path opacity="0.1" d="M104.365 47.1944L94.4118 35.1985C94.4118 35.1985 93.4924 34.8292 96.5983 31.5808C96.5983 31.5808 108.004 40.4641 108.712 41.9731C109.42 43.482 104.365 47.1944 104.365 47.1944Z" fill="black"/>
<path d="M104.049 46.5631L94.0958 34.5672C94.0958 34.5672 93.1763 34.1978 96.2822 30.9495C96.2822 30.9495 107.688 39.8327 108.396 41.3417C109.104 42.8507 104.049 46.5631 104.049 46.5631Z" fill="#E5E8EF"/>
<path d="M129.246 122.911C129.246 122.911 127.351 121.774 127.351 120.433C127.351 119.091 126.403 100.15 126.403 100.15C126.403 100.15 125.012 88.8455 123.559 79.8612C122.706 74.5672 121.831 70.075 121.212 69.1848L121.186 69.1469C119.527 67.0161 119.843 56.5986 109.496 41.3669C109.635 41.4616 113.202 43.9618 115.815 45.2183C116.347 45.4853 116.905 45.6969 117.48 45.8496C119.85 46.4021 127.591 49.401 127.354 54.2152C127.117 59.0293 127.907 70.0782 127.907 70.0782V92.7221L129.246 122.911Z" fill="#5F5570"/>
<path d="M129.246 49.562C129.246 49.562 132.564 58.7168 132.09 61.0055C131.616 63.2942 139.752 72.2911 139.752 72.2911L147.493 66.9245C147.493 66.9245 144.57 61.0844 144.965 59.3482C145.36 57.6119 142.912 53.9027 142.912 53.9027L143.07 47.7532C143.07 47.7532 141.648 50.4207 129.246 49.562Z" fill="#5F5570"/>
<path opacity="0.1" d="M118.036 13.1356L112.033 13.3628C111.447 13.359 110.862 13.4322 110.295 13.5807C108.15 14.2404 107.161 16.5197 107.082 18.5684C107.003 20.6172 105.818 22.9122 103.521 23.0922C103.292 23.1309 103.058 23.0788 102.867 22.9469C102.721 22.7921 102.625 22.5977 102.589 22.3882C102.259 21.1944 101.75 20.0576 101.079 19.0167C100.131 19.1872 99.4293 20.0869 99.1829 21.0276C98.9364 21.9683 99.0028 22.9596 99.0059 23.935C99.0088 25.1739 98.8892 26.41 98.6489 27.6253C97.6694 26.3549 96.9524 24.9027 96.5397 23.353C96.1269 21.8033 96.0265 20.1871 96.2445 18.5983C96.4624 17.0095 96.9943 15.4798 97.8091 14.0982C98.624 12.7166 99.7056 11.5106 100.991 10.5503C102.276 9.59007 103.74 8.89467 105.297 8.50458C106.854 8.11448 108.473 8.03747 110.06 8.27802C111.647 8.51856 113.17 9.07187 114.541 9.90578C115.912 10.7397 117.103 11.8375 118.046 13.1356H118.036Z" fill="black"/>
<path d="M109.982 13.265C110.55 13.1166 111.134 13.0434 111.72 13.0472L119.009 12.7757C120.077 12.7347 121.268 12.64 121.986 11.8476C122.243 11.545 122.433 11.1909 122.542 10.809C122.729 10.1988 122.785 9.55566 122.703 8.9225C122.622 8.28935 122.407 7.68082 122.071 7.13763C121.227 5.79598 119.749 5.01625 118.339 4.29649C117.028 3.59642 115.681 2.96422 114.305 2.4024C109.192 0.462334 103.53 0.543622 98.4751 2.62969C97.9756 2.82124 97.5022 3.07472 97.0659 3.38417C96.4566 3.90581 95.9378 4.52446 95.5304 5.21513L93.1322 8.82653C92.8014 9.2675 92.5462 9.76037 92.3771 10.285C91.9253 11.9991 93.325 13.7133 93.1796 15.4779C93.0975 16.3555 92.633 17.1605 92.5477 18.0381C92.434 19.1714 92.9521 20.2479 93.4608 21.2802L97.6757 29.7752C98.3564 27.7943 98.7013 25.7137 98.6963 23.6194C98.6963 22.6439 98.6141 21.6527 98.8732 20.7119C99.1323 19.7712 99.8211 18.8715 100.769 18.7011C101.442 19.7414 101.953 20.8783 102.282 22.0725C102.317 22.2823 102.414 22.4769 102.56 22.6313C102.751 22.7635 102.986 22.8156 103.215 22.7765C105.524 22.5966 106.69 20.3237 106.775 18.2528C106.861 16.1819 107.837 13.9248 109.982 13.265Z" fill="#8F7080"/>
<path d="M60.3135 148.74L63.2645 147.897L107.761 150.318L102.864 150.95L60.3135 148.74Z" fill="#7B728F"/>
<path opacity="0.1" d="M60.3135 148.74L63.2645 147.897L107.761 150.318L102.864 150.95L60.3135 148.74Z" fill="black"/>
<path d="M108.971 192.935L103.101 192.389L101.041 192.2V159.577L101.584 152.004L101.704 150.318H107.761L108.971 192.935Z" fill="#7B728F"/>
<path opacity="0.1" d="M107.366 191.777L102.684 191.259L101.041 191.079V160.148L101.474 152.97L101.568 151.369H106.399L107.366 191.777Z" fill="black"/>
<path d="M75.2551 148.74C75.2551 148.74 78.1777 142.335 79.4037 142.136C80.6296 141.937 82.8792 142.136 82.8792 142.136L82.6802 143.992C82.6802 143.992 79.6785 144.229 78.7307 149.239L75.2551 148.74Z" fill="#7B728F"/>
<path opacity="0.1" d="M75.2551 148.74C75.2551 148.74 78.1777 142.335 79.4037 142.136C80.6296 141.937 82.8792 142.136 82.8792 142.136L82.6802 143.992C82.6802 143.992 79.6785 144.229 78.7307 149.239L75.2551 148.74Z" fill="black"/>
<path d="M86.5919 141.467C86.5919 141.467 94.4498 145.372 93.4229 149.949L89.1575 149.712C89.1575 149.712 87.1037 142.887 85.486 142.53C83.8683 142.174 86.5919 141.467 86.5919 141.467Z" fill="#7B728F"/>
<path d="M115.818 79.6307V79.8611L115.66 106.148C115.66 106.148 111.632 128.246 110.526 129.114C109.42 129.982 85.17 127.614 85.17 127.614L74.1905 53.6659C74.1115 41.0386 83.0373 41.4332 83.0373 41.4332C84.2222 39.5391 89.9094 38.0396 89.9094 38.0396L93.069 34.9617L93.1701 34.8197C93.3801 34.5069 93.6509 34.2396 93.9664 34.0336C94.6172 33.658 95.0311 34.1536 95.2681 34.6429C95.3748 34.8726 95.4574 35.1128 95.5146 35.3595C108.314 44.7384 115.818 79.6307 115.818 79.6307Z" fill="#5F5570"/>
<path opacity="0.1" d="M115.502 79.9463V80.1768C111.53 72.9161 96.2285 45.4076 92.0421 44.0375L93.6535 42.9326C93.6535 42.9326 94.7277 42.3013 92.753 41.6699C92.753 41.6699 89.6724 42.0645 89.5934 38.3552L92.8541 35.1353L93.6503 34.3492L94.9521 34.9585C95.0587 35.1882 95.1413 35.4284 95.1985 35.6751C107.998 45.054 115.502 79.9463 115.502 79.9463Z" fill="black"/>
<path d="M115.818 79.6307V79.8611C111.846 72.6004 96.5444 45.0919 92.358 43.7218L93.9694 42.617C93.9694 42.617 95.0436 41.9856 93.0689 41.3542C93.0689 41.3542 89.9883 41.7488 89.9093 38.0396L93.17 34.8196L93.9662 34.0336L95.268 34.6428C95.3746 34.8726 95.4572 35.1127 95.5144 35.3594C108.314 44.7383 115.818 79.6307 115.818 79.6307Z" fill="#433A59"/>
<path opacity="0.1" d="M121.531 69.4879L121.505 69.45C119.847 67.3192 120.162 56.9017 109.815 41.67C109.954 41.7647 113.521 44.2649 116.134 45.5214L115.404 47.9269L116.984 48.7697L121.531 69.4879Z" fill="black"/>
<path d="M121.215 69.1723L121.189 69.1344C119.53 67.0035 119.846 56.586 109.499 41.3544C109.638 41.4491 113.205 43.9493 115.818 45.2057L115.088 47.6112L116.668 48.4541L121.215 69.1723Z" fill="#433A59"/>
<path opacity="0.1" d="M109.044 38.9236L108.396 41.6574C108.396 41.6574 108.87 44.3943 111.711 44.6311L112.169 43.3273C112.169 43.3273 109.104 41.3638 109.044 38.9236Z" fill="black"/>
<path d="M109.044 38.6079L108.396 41.3417C108.396 41.3417 108.87 44.0787 111.711 44.3154L112.169 43.0117C112.169 43.0117 109.104 41.0481 109.044 38.6079Z" fill="#E5E8EF"/>
<path opacity="0.1" d="M104.959 150.76L103.101 192.389L101.041 192.2V159.577L101.584 152.004L104.959 150.76Z" fill="black"/>
<path d="M60.7369 166.838L59.473 189.355L102.443 192.935L104.327 150.76L60.7369 166.838Z" fill="#7B728F"/>
<path opacity="0.1" d="M59.7891 169.259L60.6295 149.371L104.643 151.392L102.548 172.416L59.7891 169.259Z" fill="black"/>
<path d="M59.473 168.628L60.3135 148.74L104.327 150.76L102.232 171.785L59.473 168.628Z" fill="#7B728F"/>
<path d="M83.2743 168.653H77.9819V174.809H83.2743V168.653Z" fill="#C3BBC8"/>
<path d="M78.7718 128.325L77.9819 130.455C77.9819 130.455 76.3231 142.136 78.3769 143.556C80.4306 144.977 86.5128 145.056 86.8288 144.345C87.1447 143.635 89.3565 135.585 89.3565 135.585C89.3565 135.585 91.3312 141.504 92.3581 141.031C93.3849 140.557 89.9884 129.306 89.9884 129.306L78.7718 128.325Z" fill="#FFC5D3"/>
<path opacity="0.1" d="M77.9819 119.486V130.771C77.9819 130.771 86.3549 132.35 89.9884 129.622C89.9884 129.622 86.5918 118.696 87.8557 115.934C89.1195 113.172 77.9819 119.486 77.9819 119.486Z" fill="black"/>
<path d="M77.9819 119.17V130.456C77.9819 130.456 86.3549 132.034 89.9884 129.306C89.9884 129.306 86.5918 118.381 87.8557 115.618C89.1195 112.856 77.9819 119.17 77.9819 119.17Z" fill="#E5E8EF"/>
<path opacity="0.1" d="M77.034 53.1134L74.8223 54.2972C74.8223 54.2972 74.4273 59.0325 74.1904 59.6638C73.9534 60.2952 74.1904 66.6878 74.1904 66.6878L74.0829 79.6307C74.0829 79.6307 73.7417 86.4968 74.0829 88.9433C74.4242 91.3899 74.8065 100.702 74.8065 100.702C74.8065 100.702 76.9424 109.778 76.1525 113.014C75.3626 116.25 76.2315 123.51 77.5743 122.879C78.9171 122.248 91.3185 119.801 91.9504 119.328C92.5824 118.854 92.2664 114.435 91.9504 113.882C91.6345 113.33 89.7387 105.832 89.8967 104.096C90.0547 102.36 89.3438 87.1281 89.3438 87.1281C89.3438 87.1281 90.5286 70.8705 91.0026 67.0824C91.4765 63.2942 90.0547 52.1664 88.7908 52.0085C87.527 51.8507 83.8271 43.2484 77.034 53.1134Z" fill="black"/>
<path d="M76.4022 52.4821L74.1904 53.6659C74.1904 53.6659 73.7955 58.4011 73.5585 59.0325C73.3216 59.6638 73.5585 66.0564 73.5585 66.0564L73.4511 78.9994C73.4511 78.9994 73.1099 85.8654 73.4511 88.312C73.7923 90.7585 74.1746 100.071 74.1746 100.071C74.1746 100.071 76.3105 109.147 75.5206 112.383C74.7307 115.618 75.5996 122.879 76.9425 122.248C78.2853 121.616 90.6867 119.17 91.3186 118.696C91.9505 118.223 91.6346 113.803 91.3186 113.251C91.0026 112.698 89.1069 105.201 89.2649 103.465C89.4228 101.728 88.7119 86.4968 88.7119 86.4968C88.7119 86.4968 89.8968 70.2392 90.3707 66.451C90.8447 62.6628 89.4228 51.535 88.159 51.3772C86.8952 51.2194 83.1953 42.617 76.4022 52.4821Z" fill="#5F5570"/>
<g opacity="0.1">
<path opacity="0.1" d="M100.292 17.5172C99.344 17.6877 98.6426 18.5874 98.3961 19.5281C98.1497 20.4688 98.216 21.4601 98.2192 22.4355C98.2253 24.5297 97.8814 26.6103 97.2018 28.5913L92.9837 20.0963C92.9016 19.929 92.8163 19.7554 92.7341 19.5818C92.9293 20.1664 93.1713 20.7343 93.4577 21.2801L97.6757 29.7751C98.3553 27.7941 98.6992 25.7135 98.6931 23.6193C98.6931 22.6439 98.6141 21.6526 98.8701 20.7119C99.126 19.7712 99.8179 18.8715 100.766 18.701C101.072 19.1798 101.345 19.6787 101.584 20.1942C101.263 19.253 100.829 18.3541 100.292 17.5172Z" fill="black"/>
<path opacity="0.1" d="M122.147 7.27332C122.332 8.04996 122.306 8.86204 122.071 9.62514C121.961 10.0072 121.77 10.3614 121.512 10.6637C120.794 11.4561 119.616 11.5508 118.535 11.5918L111.249 11.8633C110.662 11.8595 110.077 11.9327 109.508 12.0812C107.366 12.7409 106.374 15.0201 106.295 17.0689C106.216 19.1177 105.031 21.4127 102.734 21.5926C102.506 21.6314 102.271 21.5793 102.08 21.4474C102.153 21.6526 102.222 21.861 102.282 22.0788C102.315 22.2887 102.411 22.4836 102.557 22.6376C102.748 22.7694 102.983 22.8216 103.211 22.7828C105.524 22.6028 106.687 20.3299 106.772 18.259C106.858 16.1882 107.843 13.931 109.985 13.2713C110.554 13.1228 111.139 13.0496 111.726 13.0534L119.012 12.782C120.08 12.7409 121.272 12.6462 121.989 11.8539C122.247 11.5515 122.438 11.1974 122.548 10.8153C122.727 10.2288 122.784 9.61195 122.715 9.00273C122.646 8.3935 122.453 7.8049 122.147 7.27332Z" fill="black"/>
</g>
<path opacity="0.1" d="M110.282 136.75C110.282 136.75 113.019 135.33 114.074 135.409C115.129 135.487 124.605 147.528 124.605 147.528L110.282 136.75Z" fill="black"/>
<path opacity="0.1" d="M82.2158 55.2664C82.2158 55.2664 77.2141 57.4004 77.3468 58.8746C77.4795 60.3488 82.2158 55.2664 82.2158 55.2664Z" fill="black"/>
<path opacity="0.1" d="M79.7797 62.2429C79.7797 62.2429 74.5317 68.948 75.6912 69.1721C76.8508 69.3963 79.7797 62.2429 79.7797 62.2429Z" fill="black"/>
<path opacity="0.1" d="M97.3344 72.2911C97.3344 72.2911 97.8147 87.286 93.9663 89.1801L97.3344 72.2911Z" fill="black"/>
<path opacity="0.1" d="M77.3342 112.329C77.3342 112.329 81.0373 110.227 81.8872 110.647C82.7372 111.066 77.3342 112.329 77.3342 112.329Z" fill="black"/>
<path opacity="0.1" d="M77.9819 115.237C77.9819 115.237 80.32 115.404 81.429 114.921C82.5381 114.438 77.9819 115.237 77.9819 115.237Z" fill="black"/>
<path opacity="0.1" d="M133.796 60.0206C133.796 60.0206 136.697 68.3452 138.368 68.3452L133.796 60.0206Z" fill="black"/>
<path opacity="0.1" d="M92.5508 219.452C92.5508 219.452 97.9916 217.978 98.7941 219.452C99.5967 220.927 92.5508 219.452 92.5508 219.452Z" fill="black"/>
<path opacity="0.1" d="M75.2552 197.595C75.2552 197.595 73.8997 199.669 75.6912 200.3C77.4827 200.931 75.2552 197.595 75.2552 197.595Z" fill="black"/>
<path opacity="0.1" d="M111.395 168.653C111.395 168.653 115.502 172.309 117.442 172.416C119.382 172.523 111.395 168.653 111.395 168.653Z" fill="black"/>
<path d="M273.178 18.8872C273.178 18.8872 246.578 17.2741 249.712 35.8993C249.712 35.8993 249.08 39.1919 252.076 40.6882C252.076 40.6882 252.123 39.3055 254.805 39.7759C255.759 39.9341 256.729 39.9807 257.693 39.9148C258.996 39.8263 260.234 39.3178 261.223 38.4658C261.223 38.4658 268.701 35.3816 271.608 23.1679C271.608 23.1679 273.76 20.5035 273.675 19.8185L269.185 21.7347C269.185 21.7347 270.72 24.9704 269.501 27.66C269.501 27.66 269.355 21.8515 268.493 21.9777C268.316 22.0062 266.158 23.0984 266.158 23.0984C266.158 23.0984 268.799 28.7365 266.806 32.8309C266.806 32.8309 267.564 25.8859 265.336 23.5056L262.177 25.3492C262.177 25.3492 265.264 31.1704 263.172 35.9214C263.172 35.9214 263.709 28.6355 261.513 25.7975L258.651 28.0294C258.651 28.0294 261.548 33.7684 259.782 37.7082C259.782 37.7082 259.551 29.2258 258.028 28.585C258.028 28.585 255.526 30.7947 255.144 31.6976C255.144 31.6976 257.128 35.8646 255.896 38.0617C255.896 38.0617 255.14 32.411 254.521 32.3795C254.521 32.3795 252.025 36.1234 251.766 38.6931C251.766 38.6931 251.873 34.8733 253.918 32.0227C253.918 32.0227 251.504 32.4363 250.094 34.0021C250.094 34.0021 250.483 31.3535 254.518 31.123C254.518 31.123 256.578 28.2819 257.131 28.1083C257.131 28.1083 253.102 27.7737 250.66 28.8533C250.66 28.8533 252.812 26.3562 257.87 27.4927L260.714 25.1882C260.714 25.1882 255.409 24.4622 253.162 25.264C253.162 25.264 255.75 23.0542 261.475 24.6642L264.553 22.8238C264.553 22.8238 260.031 21.8515 257.339 22.1924C257.339 22.1924 260.183 20.6613 265.453 22.3218L267.665 21.3337C267.665 21.3337 264.354 20.6834 263.384 20.5824C262.414 20.4814 262.36 20.2099 262.36 20.2099C264.459 19.8605 266.614 20.0998 268.584 20.9013C268.584 20.9013 273.261 19.1682 273.178 18.8872Z" fill="#6C63FF"/>
<path d="M220.379 15.3168C220.379 15.3168 208.372 14.5939 209.775 23.01C209.775 23.01 209.494 24.4968 210.843 25.1724C210.843 25.1724 210.865 24.541 212.075 24.7588C212.507 24.833 212.946 24.8542 213.383 24.822C213.967 24.7784 214.521 24.5481 214.963 24.1654C214.963 24.1654 218.341 22.7701 219.655 17.2519C219.655 17.2519 220.628 16.0492 220.603 15.7398L218.568 16.6048C218.568 16.6048 219.26 18.0664 218.717 19.2818C218.717 19.2818 218.65 16.6585 218.258 16.7184C218.179 16.7184 217.206 17.2267 217.206 17.2267C217.206 17.2267 218.397 19.7742 217.497 21.6241C217.497 21.6241 217.841 18.4863 216.833 17.4098L215.408 18.2432C215.408 18.2432 216.802 20.8728 215.857 23.0194C215.857 23.0194 216.1 19.7269 215.108 18.4452L213.816 19.4554C213.816 19.4554 215.124 22.0471 214.325 23.8276C214.325 23.8276 214.22 19.9952 213.535 19.7048C213.535 19.7048 212.404 20.7023 212.23 21.1127C212.23 21.1127 213.127 23.0068 212.571 23.9886C212.571 23.9886 212.23 21.4347 211.939 21.4221C211.939 21.4221 210.811 23.1141 210.694 24.2632C210.749 23.1915 211.085 22.153 211.667 21.2516C211.016 21.3741 210.415 21.6847 209.939 22.145C209.939 22.145 210.116 20.9486 211.946 20.8444C211.946 20.8444 212.878 19.5596 213.127 19.4838C213.127 19.4838 211.307 19.3291 210.201 19.8184C210.201 19.8184 211.175 18.6914 213.459 19.1871L214.723 18.1453C214.723 18.1453 212.325 17.8296 211.31 18.18C211.31 18.18 212.48 17.1825 215.064 17.9086L216.457 17.0783C216.457 17.0783 214.413 16.6395 213.197 16.7974C213.197 16.7974 214.48 16.106 216.865 16.8542L217.857 16.4091C217.857 16.4091 216.363 16.1155 215.923 16.0681C215.484 16.0208 215.462 15.9008 215.462 15.9008C216.411 15.7452 217.384 15.8544 218.274 16.2165C218.274 16.2165 220.416 15.4494 220.379 15.3168Z" fill="#6C63FF"/>
<path opacity="0.1" d="M267.491 229.636C272.19 229.636 276 228.993 276 228.2C276 227.407 272.19 226.764 267.491 226.764C262.792 226.764 258.982 227.407 258.982 228.2C258.982 228.993 262.792 229.636 267.491 229.636Z" fill="#6C63FF"/>
<path opacity="0.1" d="M8.50879 208.255C13.2081 208.255 17.0176 207.612 17.0176 206.819C17.0176 206.026 13.2081 205.383 8.50879 205.383C3.80951 205.383 0 206.026 0 206.819C0 207.612 3.80951 208.255 8.50879 208.255Z" fill="#6C63FF"/>
<path opacity="0.1" d="M261.57 201.815C266.269 201.815 270.079 201.172 270.079 200.379C270.079 199.586 266.269 198.943 261.57 198.943C256.871 198.943 253.061 199.586 253.061 200.379C253.061 201.172 256.871 201.815 261.57 201.815Z" fill="#6C63FF"/>
<path opacity="0.1" d="M41.4191 215.961C46.1183 215.961 49.9279 215.318 49.9279 214.525C49.9279 213.731 46.1183 213.088 41.4191 213.088C36.7198 213.088 32.9103 213.731 32.9103 214.525C32.9103 215.318 36.7198 215.961 41.4191 215.961Z" fill="#6C63FF"/>
<path opacity="0.1" d="M223.642 217.195C228.342 217.195 232.151 216.552 232.151 215.759C232.151 214.966 228.342 214.323 223.642 214.323C218.943 214.323 215.134 214.966 215.134 215.759C215.134 216.552 218.943 217.195 223.642 217.195Z" fill="#6C63FF"/>
<path d="M248.869 245.739C255.885 245.739 261.573 244.778 261.573 243.593C261.573 242.407 255.885 241.446 248.869 241.446C241.852 241.446 236.164 242.407 236.164 243.593C236.164 244.778 241.852 245.739 248.869 245.739Z" fill="#6C63FF"/>
<path d="M254.12 240.082C254.699 239.61 255.121 238.974 255.33 238.258C255.488 237.532 255.178 236.679 254.483 236.398C253.706 236.102 252.875 236.638 252.246 237.181C251.617 237.724 250.894 238.346 250.069 238.232C250.494 237.848 250.811 237.361 250.991 236.817C251.171 236.274 251.207 235.694 251.096 235.132C251.059 234.9 250.96 234.682 250.809 234.501C250.379 234.04 249.595 234.239 249.08 234.602C247.437 235.757 246.979 237.986 246.97 239.994C246.805 239.268 246.944 238.513 246.938 237.784C246.932 237.055 246.733 236.206 246.104 235.821C245.716 235.612 245.28 235.509 244.84 235.521C244.101 235.495 243.279 235.568 242.777 236.108C242.145 236.777 242.312 237.904 242.856 238.633C243.399 239.363 244.23 239.833 244.995 240.344C245.607 240.708 246.129 241.205 246.521 241.8C246.569 241.881 246.607 241.968 246.635 242.058H251.267C252.302 241.531 253.262 240.866 254.12 240.082Z" fill="#6C63FF"/>
<path d="M41.8582 179.219C41.8582 179.219 43.596 181.485 41.0589 184.901C38.5217 188.317 36.4301 191.215 37.2674 193.349C37.2674 193.349 41.0968 186.991 44.2185 186.902C47.3401 186.814 45.2864 183.051 41.8582 179.219Z" fill="#6C63FF"/>
<path opacity="0.1" d="M41.8583 179.219C42.0103 179.437 42.1296 179.676 42.2122 179.929C45.2517 183.496 46.8726 186.827 43.95 186.912C41.2296 186.988 37.9657 191.849 37.1821 193.077C37.2079 193.172 37.2385 193.266 37.2738 193.358C37.2738 193.358 41.1032 187 44.2249 186.912C47.3465 186.824 45.2865 183.051 41.8583 179.219Z" fill="black"/>
<path d="M45.0843 182.117C45.0843 182.915 44.9958 183.562 44.8852 183.562C44.7746 183.562 44.6862 182.931 44.6862 182.117C44.6862 181.302 44.7967 181.694 44.9073 181.694C45.0179 181.694 45.0843 181.318 45.0843 182.117Z" fill="#FFD037"/>
<path d="M46.1933 183.07C45.4919 183.452 44.8789 183.683 44.8283 183.588C44.7778 183.493 45.2991 183.102 46.0005 182.72C46.702 182.338 46.4271 182.616 46.4776 182.72C46.5282 182.824 46.8947 182.691 46.1933 183.07Z" fill="#FFD037"/>
<path d="M32.6924 179.219C32.6924 179.219 30.9546 181.485 33.4918 184.901C36.0289 188.317 38.1206 191.215 37.2833 193.349C37.2833 193.349 33.457 186.991 30.3322 186.902C27.2073 186.814 29.2642 183.051 32.6924 179.219Z" fill="#6C63FF"/>
<path opacity="0.1" d="M32.6923 179.219C32.5399 179.437 32.4197 179.676 32.3353 179.929C29.2957 183.496 27.678 186.827 30.5975 186.912C33.321 186.988 36.5849 191.849 37.3685 193.077C37.3431 193.173 37.3114 193.267 37.2737 193.358C37.2737 193.358 33.4474 187 30.3226 186.912C27.1978 186.824 29.2641 183.051 32.6923 179.219Z" fill="black"/>
<path d="M29.4633 182.117C29.4633 182.915 29.5549 183.562 29.6655 183.562C29.7761 183.562 29.8645 182.931 29.8645 182.117C29.8645 181.302 29.7539 181.694 29.6434 181.694C29.5328 181.694 29.4633 181.318 29.4633 182.117Z" fill="#FFD037"/>
<path d="M28.3605 183.07C29.0619 183.452 29.6717 183.683 29.7254 183.588C29.7791 183.493 29.2515 183.102 28.55 182.72C27.8486 182.338 28.1266 182.616 28.0729 182.72C28.0192 182.824 27.6559 182.691 28.3605 183.07Z" fill="#FFD037"/>
<path d="M30.0161 193.071C30.0161 193.071 34.8692 192.923 36.3353 191.881C37.8013 190.839 43.8014 189.598 44.1616 191.268C44.5218 192.938 51.4571 199.568 45.9784 199.612C40.4996 199.656 33.2452 198.76 31.7855 197.869C30.3258 196.979 30.0161 193.071 30.0161 193.071Z" fill="#A8A8A8"/>
<path opacity="0.2" d="M46.0732 199.031C40.5944 199.075 33.34 198.179 31.8803 197.288C30.7713 196.613 30.3258 194.185 30.1773 193.064H30.0161C30.0161 193.064 30.3321 196.976 31.7823 197.863C33.2326 198.75 40.4965 199.65 45.9752 199.605C47.555 199.605 48.1016 199.031 48.0732 198.197C47.852 198.706 47.2485 199.021 46.0732 199.031Z" fill="black"/>
</g>
<defs>
<linearGradient id="paint0_linear" x1="103.205" y1="241.443" x2="103.205" y2="6.41537e-05" gradientUnits="userSpaceOnUse">
<stop stop-color="#808080" stop-opacity="0.25"/>
<stop offset="0.54" stop-color="#808080" stop-opacity="0.12"/>
<stop offset="1" stop-color="#808080" stop-opacity="0.1"/>
</linearGradient>
<clipPath id="clip0">
<rect width="276" height="253" fill="white"/>
</clipPath>
</defs>
</svg>
