<svg width="628" height="417" viewBox="0 0 628 417" fill="none" xmlns="http://www.w3.org/2000/svg">
<g clip-path="url(#clip0)">
<g opacity="0.2">
<path opacity="0.2" d="M514.767 348.593C510.561 351.123 506.271 353.576 501.898 355.954C501.219 356.321 500.541 356.688 499.862 357.066C496.572 358.828 493.234 360.542 489.848 362.207C489.874 361.94 489.907 361.673 489.948 361.406C490.336 358.642 491.198 355.965 492.496 353.495C493.106 352.312 493.833 351.194 494.666 350.157C498.004 346.023 502.571 343.714 507.267 344.387C510.193 344.836 512.858 346.331 514.767 348.593Z" fill="#3F3D56"/>
<path opacity="0.2" d="M522.477 342.245C522.394 342.841 522.288 343.425 522.16 344.003C519.731 345.561 517.266 347.091 514.766 348.593C510.56 351.123 506.271 353.576 501.898 355.953C501.219 356.321 500.541 356.688 499.862 357.066C499.046 356.467 498.299 355.779 497.636 355.013C496.392 353.576 495.394 351.942 494.682 350.179C493.195 346.33 492.721 342.164 493.306 338.079C493.89 333.995 495.514 330.129 498.02 326.852C501.358 322.718 505.926 320.409 510.622 321.082C515.317 321.756 519.078 325.266 521.092 330.162C522.618 333.995 523.096 338.166 522.477 342.245Z" fill="#3F3D56"/>
<path opacity="0.2" d="M525.845 318.937C527.36 308.396 522.06 298.913 514.006 297.755C505.953 296.597 498.196 304.204 496.68 314.745C495.165 325.286 500.465 334.77 508.519 335.928C516.573 337.085 524.33 329.478 525.845 318.937Z" fill="#3F3D56"/>
<path opacity="0.2" d="M609.919 124.001C608.486 134.084 604.88 143.735 599.348 152.285L557.939 146.049L595.348 157.849C593.322 160.407 591.123 162.823 588.766 165.081C596.679 178.782 599.757 194.744 597.507 210.405C595.257 226.066 587.809 240.516 576.36 251.435C583.053 262.982 586.316 276.198 585.768 289.533C568.17 310.011 546.701 328.382 522.16 344.054C519.731 345.611 517.266 347.141 514.767 348.643C510.561 351.173 506.271 353.626 501.898 356.004C500.457 355.725 499.039 355.408 497.637 355.041C495.895 354.602 494.187 354.09 492.513 353.522C481.021 349.614 470.732 342.808 462.64 333.761C454.547 324.715 448.926 313.733 446.318 301.879C443.71 290.025 444.205 277.699 447.753 266.091C451.302 254.484 457.785 243.988 466.576 235.619C465.864 234.387 465.19 233.139 464.556 231.874C464.367 231.507 464.189 231.14 464 230.762C458.859 220.042 456.523 208.193 457.212 196.325L457.296 195.095C457.346 194.433 457.407 193.766 457.474 193.103C457.574 192.169 457.691 191.229 457.824 190.288V190.199C458.913 182.611 461.24 175.253 464.712 168.419L515.178 193.832L469.191 160.847C472.029 156.642 475.312 152.755 478.982 149.253C474.134 140.864 471.066 131.567 469.968 121.94C468.871 112.313 469.768 102.564 472.603 93.299C475.439 84.0341 480.152 75.4525 486.45 68.089C492.747 60.7254 500.494 54.7377 509.207 50.4989C517.919 46.2601 527.412 43.8612 537.093 43.4515C546.773 43.0419 556.435 44.6303 565.474 48.1178C574.514 51.6054 582.739 56.9173 589.636 63.7225C596.533 70.5278 601.954 78.6805 605.563 87.6727L548.887 117.987L608.617 97.1415C610.774 105.928 611.216 115.048 609.919 124.001Z" fill="#6C63FF"/>
<path opacity="0.1" d="M585.768 289.483C568.17 309.961 546.701 328.332 522.16 344.003C519.731 345.561 517.266 347.091 514.767 348.593C510.561 351.123 506.271 353.576 501.898 355.954C500.457 355.675 499.039 355.358 497.637 354.991C495.895 354.552 494.187 354.04 492.513 353.472C481.031 349.56 470.752 342.754 462.667 333.712C454.582 324.669 448.965 313.695 446.358 301.849C443.751 290.002 444.242 277.684 447.783 266.083C451.325 254.482 457.797 243.989 466.576 235.619C465.864 234.387 465.19 233.139 464.556 231.874C464.367 231.507 464.189 231.14 464 230.762C458.859 220.042 456.523 208.193 457.212 196.325L457.296 195.095C457.346 194.433 457.407 193.766 457.474 193.103C457.574 192.169 457.691 191.229 457.824 190.288V190.199C458.258 188.697 464 189.96 472.746 192.981L474.593 193.638C476.529 194.333 478.593 195.101 480.763 195.941C485.497 197.766 490.727 199.919 496.246 202.3L496.607 202.455L497.375 202.789C534.484 218.878 583.297 244.692 576.299 251.357C583.018 262.906 586.303 276.132 585.768 289.483Z" fill="black"/>
</g>
<g opacity="0.2">
<path opacity="0.2" d="M177.43 379.792C175.094 378.988 172.774 378.157 170.471 377.3C165.107 375.327 159.828 373.241 154.631 371.041C155.685 370.186 156.881 369.524 158.164 369.083C162.799 367.492 167.889 369.011 172.034 372.671C174.271 374.679 176.103 377.096 177.43 379.792Z" fill="#3F3D56"/>
<path opacity="0.2" d="M172.034 372.671C171.719 374.276 171.193 375.833 170.471 377.3C165.107 375.327 159.828 373.241 154.631 371.041C150.11 369.139 145.659 367.152 141.279 365.083C141.087 363.755 141.002 362.413 141.023 361.072C141.042 359.674 141.191 358.281 141.468 356.91C142.581 351.442 145.73 347.086 150.37 345.494C155.01 343.903 160.095 345.422 164.239 349.088C165.243 349.978 166.163 350.957 166.988 352.015C168.815 354.367 170.223 357.017 171.149 359.848C172.554 363.973 172.859 368.393 172.034 372.671Z" fill="#3F3D56"/>
<path opacity="0.2" d="M155.046 360.591C163.05 358.061 166.795 347.33 163.411 336.622C160.026 325.914 150.794 319.284 142.79 321.814C134.785 324.344 131.041 335.075 134.425 345.783C137.81 356.491 147.042 363.121 155.046 360.591Z" fill="#3F3D56"/>
<path opacity="0.2" d="M147.225 336.997C155.229 334.467 158.974 323.735 155.59 313.027C152.205 302.319 142.973 295.69 134.969 298.219C126.965 300.749 123.22 311.48 126.604 322.189C129.989 332.897 139.221 339.526 147.225 336.997Z" fill="#3F3D56"/>
<path opacity="0.2" d="M166.96 352.015C165.413 352.92 163.826 353.767 162.198 354.557C159.573 355.832 156.874 356.947 154.114 357.895C151.596 358.764 149.031 359.49 146.431 360.07C144.624 360.478 142.816 360.81 141.006 361.066C138.759 361.389 136.517 361.6 134.28 361.7C107.397 348.348 83.263 332.014 62.667 313.361C62.3722 312.571 62.1107 311.775 61.827 310.968C56.5472 295.138 56.6371 278.008 62.0829 262.233C48.3105 252.986 38.0255 239.4 32.8635 223.635C30.2955 215.92 28.9806 207.844 28.969 199.713H87.2354L29.5365 190.489C30.1774 185.184 31.3784 179.963 33.1194 174.911C19.3453 165.666 9.05974 152.079 3.90001 136.313C-9.04064 97.3083 11.305 55.0881 49.3425 41.992C74.8065 33.2354 101.739 39.7667 120.65 56.7349L82.7345 112.235L127.877 64.212C133.984 71.5042 138.652 79.8903 141.63 88.9244C145.025 99.1284 146.216 109.937 145.123 120.635L104.159 134.366L144.05 127.729C143.385 131.094 142.491 134.41 141.374 137.654C155.146 146.899 165.431 160.483 170.593 176.247C173.094 183.756 174.408 191.609 174.487 199.524V199.585C174.487 200.197 174.487 200.809 174.487 201.421C174.487 201.682 174.487 201.938 174.487 202.199C174.293 209.969 172.902 217.663 170.365 225.009C175.962 228.759 181.017 233.261 185.386 238.389C185.498 238.511 185.603 238.634 185.703 238.762C191.865 246.082 196.569 254.514 199.562 263.602C210.95 297.928 196.535 334.774 166.96 352.015Z" fill="#6C63FF"/>
<path opacity="0.1" d="M166.96 352.015C165.413 352.92 163.826 353.767 162.198 354.557C159.573 355.832 156.874 356.947 154.114 357.895C151.596 358.764 149.031 359.49 146.431 360.07C144.624 360.478 142.816 360.81 141.006 361.066C138.759 361.389 136.517 361.6 134.28 361.7C107.397 348.348 83.263 332.014 62.667 313.361C62.3721 312.571 62.1106 311.775 61.8269 310.968C56.5471 295.138 56.6371 278.008 62.0828 262.233C48.3105 252.986 38.0255 239.4 32.8634 223.635C30.8661 217.621 114.157 212.764 152.105 217.421L152.99 217.532C164.506 219.017 171.578 221.426 170.348 224.992C175.945 228.742 181 233.244 185.369 238.372C185.481 238.495 185.586 238.617 185.687 238.745C191.848 246.065 196.552 254.497 199.545 263.585C210.95 297.928 196.535 334.774 166.96 352.015Z" fill="black"/>
</g>
<path opacity="0.1" d="M340.607 62.2537C340.909 61.8201 341.075 61.3073 341.086 60.7795C341.086 57.5861 334.571 54.9991 326.537 54.9991C318.504 54.9991 311.989 57.5861 311.989 60.7795C311.999 61.387 312.21 61.974 312.59 62.4485C303.649 63.4443 297.618 65.3191 297.618 67.4555C297.618 70.6544 310.971 73.2413 327.411 73.2413C343.851 73.2413 357.209 70.6544 357.209 67.4555C357.209 65.1689 350.438 63.1995 340.607 62.2537Z" fill="#6C63FF"/>
<path opacity="0.1" d="M443.487 26.1144C443.967 25.4284 444.23 24.6147 444.244 23.7778C444.244 18.7096 433.907 14.5983 421.155 14.5983C408.404 14.5983 398.067 18.7096 398.067 23.7778C398.092 24.7287 398.428 25.6453 399.024 26.387C384.826 27.9725 375.257 30.9434 375.257 34.3481C375.257 39.4163 396.431 43.5276 422.546 43.5276C448.661 43.5276 469.836 39.4163 469.836 34.3481C469.836 30.7375 459.098 27.6165 443.487 26.1144Z" fill="#6C63FF"/>
<path opacity="0.1" d="M258.223 26.1144C258.703 25.4284 258.967 24.6147 258.98 23.7778C258.98 18.7096 248.643 14.5983 235.891 14.5983C223.14 14.5983 212.803 18.7096 212.803 23.7778C212.828 24.7287 213.164 25.6453 213.76 26.387C199.562 27.9725 189.993 30.9434 189.993 34.3481C189.993 39.4163 211.167 43.5276 237.282 43.5276C263.397 43.5276 284.572 39.4163 284.572 34.3481C284.572 30.7375 273.834 27.6165 258.223 26.1144Z" fill="#6C63FF"/>
<path opacity="0.1" d="M199.69 74.0425C200.986 73.2914 202.739 74.0091 203.629 75.2164C204.519 76.4236 204.769 77.998 204.992 79.4612C205.487 82.7491 205.849 86.5266 203.629 89.0079C207.256 78.0092 217.688 69.5807 229.221 68.3512" stroke="#6C63FF" stroke-width="3" stroke-miterlimit="10"/>
<path opacity="0.1" d="M345.158 19.5106C345.993 19.0266 347.117 19.5106 347.69 20.2616C348.198 21.0881 348.5 22.0252 348.569 22.9932C348.886 25.1073 349.125 27.5329 347.69 29.1129C348.918 25.589 351.109 22.4799 354.015 20.1384C356.921 17.797 360.425 16.3171 364.13 15.8666" stroke="#6C63FF" stroke-width="3" stroke-miterlimit="10"/>
<path opacity="0.1" d="M492.59 4.48957C493.425 4.00556 494.549 4.48957 495.122 5.24062C495.631 6.06707 495.932 7.00418 496.001 7.97222C496.318 10.0863 496.557 12.5119 495.122 14.0919C496.35 10.568 498.541 7.45885 501.447 5.11744C504.353 2.77603 507.857 1.29609 511.562 0.845581" stroke="#6C63FF" stroke-width="3" stroke-miterlimit="10"/>
<path opacity="0.1" d="M323.678 417C491.75 417 628 405.916 628 392.243C628 378.57 491.75 367.486 323.678 367.486C155.605 367.486 19.3553 378.57 19.3553 392.243C19.3553 405.916 155.605 417 323.678 417Z" fill="#6C63FF"/>
<path d="M553.744 108.235H86.9349C81.2598 108.235 76.6592 112.835 76.6592 118.51V377.239C76.6592 382.914 81.2598 387.514 86.9349 387.514H553.744C559.419 387.514 564.02 382.914 564.02 377.239V118.51C564.02 112.835 559.419 108.235 553.744 108.235Z" fill="white"/>
<path d="M564.025 118.51V133.253H76.6647V118.51C76.6625 117.159 76.9267 115.821 77.4421 114.573C77.9575 113.324 78.7141 112.189 79.6685 111.234C80.6229 110.278 81.7564 109.519 83.0042 109.002C84.252 108.484 85.5896 108.218 86.9404 108.218H553.75C555.101 108.218 556.438 108.484 557.686 109.002C558.934 109.519 560.067 110.278 561.022 111.234C561.976 112.189 562.733 113.324 563.248 114.573C563.763 115.821 564.028 117.159 564.025 118.51Z" fill="#3F3D56"/>
<g opacity="0.6">
<path opacity="0.6" d="M199.963 173.604H121.929C116.746 173.604 112.544 177.806 112.544 182.989V229.866C112.544 235.049 116.746 239.251 121.929 239.251H199.963C205.146 239.251 209.348 235.049 209.348 229.866V182.989C209.348 177.806 205.146 173.604 199.963 173.604Z" fill="#6C63FF"/>
<path opacity="0.6" d="M151.516 229.966C148.038 227.703 145.46 224.297 144.227 220.335C142.993 216.374 143.183 212.106 144.762 208.269C142.788 205.524 141.587 202.3 141.282 198.934C140.978 195.567 141.581 192.18 143.029 189.125C144.478 186.07 146.718 183.46 149.518 181.565C152.318 179.67 155.574 178.56 158.948 178.35C162.322 178.14 165.691 178.839 168.704 180.373C171.717 181.907 174.263 184.22 176.078 187.072C177.894 189.924 178.912 193.21 179.026 196.589C179.141 199.967 178.348 203.315 176.729 206.283C178.954 210.224 179.594 214.865 178.519 219.261C177.444 223.657 174.735 227.479 170.943 229.949C174.811 232.275 177.897 235.702 179.806 239.791H142.648C144.561 235.707 147.648 232.286 151.516 229.966Z" fill="white"/>
</g>
<path d="M355.74 281.533H277.707C272.523 281.533 268.321 285.735 268.321 290.918V337.795C268.321 342.978 272.523 347.18 277.707 347.18H355.74C360.924 347.18 365.126 342.978 365.126 337.795V290.918C365.126 285.735 360.924 281.533 355.74 281.533Z" fill="#6C63FF"/>
<path d="M326.165 341.233C328.92 342.87 331.284 345.089 333.091 347.737H299.81C301.617 345.089 303.981 342.87 306.737 341.233C303.259 338.97 300.681 335.564 299.448 331.602C298.215 327.641 298.404 323.373 299.983 319.536C298.01 316.791 296.808 313.567 296.504 310.2C296.199 306.833 296.802 303.446 298.251 300.392C299.699 297.337 301.94 294.727 304.739 292.832C307.539 290.937 310.795 289.826 314.169 289.617C317.544 289.407 320.912 290.106 323.925 291.64C326.938 293.173 329.484 295.487 331.3 298.339C333.115 301.19 334.133 304.477 334.247 307.855C334.362 311.234 333.569 314.582 331.951 317.55C334.175 321.491 334.815 326.132 333.74 330.528C332.665 334.924 329.957 338.746 326.165 341.216V341.233Z" fill="white"/>
<g opacity="0.6">
<path opacity="0.6" d="M355.74 173.604H277.707C272.523 173.604 268.321 177.806 268.321 182.989V229.866C268.321 235.049 272.523 239.251 277.707 239.251H355.74C360.924 239.251 365.126 235.049 365.126 229.866V182.989C365.126 177.806 360.924 173.604 355.74 173.604Z" fill="#6C63FF"/>
<path opacity="0.6" d="M335.561 211.463C336.281 214.966 335.929 218.605 334.55 221.906C333.172 225.206 330.831 228.015 327.834 229.966C331.701 232.292 334.787 235.718 336.696 239.808H299.538C301.447 235.718 304.533 232.292 308.4 229.966C305.193 227.875 302.746 224.806 301.421 221.215C300.096 217.623 299.965 213.7 301.045 210.027C300.803 210.054 300.56 210.067 300.317 210.066C298.459 210.047 296.681 209.315 295.349 208.02C294.017 206.726 293.234 204.969 293.163 203.113C293.091 201.257 293.736 199.445 294.965 198.051C296.193 196.658 297.91 195.791 299.76 195.629C299.387 194.74 299.198 193.784 299.204 192.82C299.209 191.128 299.808 189.491 300.895 188.195C301.982 186.898 303.49 186.024 305.155 185.724C306.821 185.425 308.538 185.718 310.01 186.554C311.481 187.39 312.612 188.716 313.207 190.3C314.34 189.25 315.78 188.592 317.314 188.419C318.849 188.247 320.398 188.571 321.736 189.343C322.624 188.827 323.611 188.507 324.632 188.403C325.653 188.298 326.685 188.413 327.659 188.738C328.632 189.063 329.525 189.592 330.279 190.289C331.032 190.986 331.629 191.835 332.028 192.781C333.916 192.78 335.729 193.518 337.081 194.836C338.432 196.154 339.214 197.948 339.261 199.835C340.037 200.768 340.566 201.881 340.799 203.072C341.031 204.263 340.961 205.493 340.593 206.65C340.226 207.806 339.574 208.852 338.696 209.69C337.819 210.528 336.744 211.132 335.572 211.446L335.561 211.463Z" fill="white"/>
</g>
<g opacity="0.6">
<path opacity="0.6" d="M518.75 281.533H440.717C435.533 281.533 431.331 285.735 431.331 290.918V337.795C431.331 342.978 435.533 347.18 440.717 347.18H518.75C523.933 347.18 528.136 342.978 528.136 337.795V290.918C528.136 285.735 523.933 281.533 518.75 281.533Z" fill="#6C63FF"/>
<path opacity="0.6" d="M498.571 322.729C499.291 326.233 498.939 329.872 497.561 333.173C496.182 336.473 493.841 339.282 490.844 341.233C493.599 342.87 495.963 345.089 497.77 347.736H464.489C466.296 345.089 468.66 342.87 471.416 341.233C468.208 339.143 465.759 336.074 464.434 332.482C463.108 328.891 462.975 324.967 464.055 321.294C463.813 321.321 463.57 321.334 463.327 321.333C461.469 321.314 459.691 320.582 458.359 319.287C457.027 317.993 456.244 316.235 456.173 314.379C456.101 312.523 456.746 310.711 457.975 309.318C459.203 307.925 460.92 307.058 462.77 306.896C462.398 306.007 462.208 305.051 462.214 304.087C462.219 302.394 462.818 300.758 463.905 299.461C464.992 298.165 466.5 297.291 468.165 296.991C469.831 296.691 471.548 296.985 473.02 297.821C474.491 298.657 475.622 299.982 476.217 301.566C477.35 300.517 478.79 299.858 480.324 299.686C481.859 299.514 483.409 299.838 484.746 300.609C485.634 300.094 486.621 299.774 487.642 299.669C488.663 299.565 489.695 299.679 490.669 300.005C491.642 300.33 492.535 300.859 493.289 301.556C494.042 302.253 494.639 303.102 495.039 304.048C496.926 304.047 498.739 304.784 500.091 306.103C501.442 307.421 502.225 309.215 502.271 311.102C503.047 312.035 503.576 313.148 503.809 314.339C504.041 315.53 503.971 316.76 503.604 317.916C503.236 319.073 502.584 320.118 501.706 320.956C500.829 321.795 499.755 322.399 498.582 322.713L498.571 322.729Z" fill="white"/>
</g>
<path d="M518.75 173.604H440.717C435.533 173.604 431.331 177.806 431.331 182.989V229.866C431.331 235.049 435.533 239.251 440.717 239.251H518.75C523.933 239.251 528.136 235.049 528.136 229.866V182.989C528.136 177.806 523.933 173.604 518.75 173.604Z" fill="#6C63FF"/>
<path d="M498.037 239.808H460.879C462.788 235.718 465.874 232.292 469.741 229.966C466.024 227.545 463.345 223.823 462.228 219.53C461.112 215.237 461.638 210.681 463.705 206.756C461.363 205.02 459.983 202.889 459.983 200.586C459.983 194.75 468.823 190.016 479.733 190.016C490.643 190.016 499.484 194.75 499.484 200.586C499.484 203.023 497.943 205.259 495.356 207.051C497.323 210.963 497.78 215.462 496.639 219.69C495.497 223.917 492.838 227.576 489.169 229.966C493.039 232.291 496.127 235.718 498.037 239.808Z" fill="white"/>
<g opacity="0.6">
<path opacity="0.6" d="M199.963 281.533H121.929C116.746 281.533 112.544 285.735 112.544 290.918V337.795C112.544 342.978 116.746 347.18 121.929 347.18H199.963C205.146 347.18 209.348 342.978 209.348 337.795V290.918C209.348 285.735 205.146 281.533 199.963 281.533Z" fill="#6C63FF"/>
<path opacity="0.6" d="M169.274 341.233C172.03 342.87 174.394 345.089 176.201 347.736H142.92C144.727 345.089 147.091 342.87 149.847 341.233C146.13 338.812 143.45 335.09 142.334 330.797C141.217 326.503 141.744 321.948 143.81 318.023C141.468 316.287 140.088 314.128 140.088 311.853C140.088 306.017 148.929 301.283 159.839 301.283C170.749 301.283 179.589 306.017 179.589 311.853C179.589 314.29 178.048 316.526 175.461 318.318C177.429 322.229 177.885 326.729 176.744 330.957C175.603 335.184 172.943 338.843 169.274 341.233Z" fill="#6C63FF"/>
<path opacity="0.6" d="M199.963 281.533H121.929C116.746 281.533 112.544 285.735 112.544 290.918V337.795C112.544 342.978 116.746 347.18 121.929 347.18H199.963C205.146 347.18 209.348 342.978 209.348 337.795V290.918C209.348 285.735 205.146 281.533 199.963 281.533Z" fill="#6C63FF"/>
<path opacity="0.6" d="M169.274 341.233C172.03 342.87 174.394 345.089 176.201 347.736H142.92C144.727 345.089 147.091 342.87 149.847 341.233C146.13 338.812 143.45 335.09 142.334 330.797C141.217 326.503 141.744 321.948 143.81 318.023C141.468 316.287 140.088 314.128 140.088 311.853C140.088 306.017 148.929 301.283 159.839 301.283C170.749 301.283 179.589 306.017 179.589 311.853C179.589 314.29 178.048 316.526 175.461 318.318C177.429 322.229 177.885 326.729 176.744 330.957C175.603 335.184 172.943 338.843 169.274 341.233Z" fill="white"/>
</g>
<path d="M587.17 384.071C586.249 383.383 585.24 382.822 584.171 382.402C584.092 382.359 584.004 382.336 583.915 382.335C581.701 380.744 579.633 378.961 577.734 377.005C578.118 376.688 578.507 376.365 578.902 376.059C576.46 374.902 575.136 372.26 573.823 369.873C570.367 363.525 565.808 357.843 560.359 353.094C560.226 352.577 559.447 352.682 559.03 352.36C558.897 352.226 558.8 352.061 558.749 351.88C558.697 351.699 558.692 351.508 558.735 351.325C558.801 350.952 558.968 350.613 559.063 350.246C559.199 349.375 559.176 348.487 558.996 347.625C558.902 346.746 558.941 345.773 559.519 345.116C559.708 344.899 559.942 344.738 560.126 344.521C560.318 344.264 560.454 343.971 560.526 343.658C560.598 343.346 560.604 343.022 560.543 342.707C560.493 342.076 560.351 341.455 560.12 340.866L566.056 324.682C567.441 320.91 568.838 317.055 568.977 313.032C569.088 309.822 568.259 306.445 566.301 303.981C566.657 303.892 567.013 303.803 567.369 303.703C565.055 300.637 564.804 296.582 564.743 292.732C564.717 290.807 564.652 288.882 564.548 286.957C565.215 287.252 565.897 287.512 566.59 287.736C566.807 287.808 567.019 287.875 567.236 287.936C568.285 288.246 569.356 288.477 570.44 288.626C570.919 288.693 571.403 288.743 571.887 288.776L569.8 283.552C569.442 282.779 569.224 281.948 569.155 281.099C569.155 281.049 569.155 280.993 569.155 280.938C569.149 280.841 569.149 280.745 569.155 280.648C569.183 280.417 569.235 280.19 569.311 279.969C569.348 279.86 569.39 279.752 569.439 279.647C569.584 279.331 569.756 279.028 569.951 278.74C570.101 278.517 570.262 278.306 570.424 278.089C571.025 277.385 571.513 276.591 571.87 275.736C572.015 275.305 572.092 274.855 572.098 274.401C572.102 273.941 572.061 273.483 571.976 273.032C571.914 272.726 571.842 272.426 571.764 272.136C571.709 271.958 571.659 271.775 571.597 271.58C571.586 271.531 571.571 271.482 571.553 271.435C571.508 271.296 571.458 271.163 571.414 271.029L571.364 270.896C571.314 270.751 571.258 270.606 571.202 270.462L571.169 270.373C570.396 268.392 569.372 266.478 568.76 264.464C568.596 263.916 568.462 263.359 568.359 262.795L568.293 262.367C568.293 262.245 568.254 262.122 568.237 262.005L568.187 261.583C568.187 261.449 568.159 261.316 568.148 261.182C568.137 261.049 568.148 260.926 568.148 260.793C568.148 260.548 568.148 260.303 568.148 260.053C568.148 259.969 568.148 259.88 568.148 259.791C568.148 259.608 568.148 259.419 568.148 259.235V258.929C568.148 258.745 568.148 258.562 568.193 258.373C568.193 258.284 568.193 258.2 568.193 258.111C568.193 257.844 568.254 257.555 568.298 257.31L568.432 256.587C568.582 255.918 568.658 255.236 568.66 254.551C568.66 254.417 568.66 254.289 568.66 254.156L568.61 253.833C568.607 253.801 568.607 253.77 568.61 253.738C568.61 253.666 568.576 253.594 568.554 253.521C568.532 253.449 568.554 253.449 568.554 253.416L568.487 253.21L568.454 253.115L568.365 252.898L568.332 252.832C568.293 252.742 568.248 252.653 568.204 252.57C568.043 252.275 567.857 251.994 567.647 251.73C566.323 249.983 564.109 248.653 562.896 246.723C562.189 245.481 561.727 244.116 561.533 242.701C561.472 242.378 561.422 242.055 561.366 241.733C561.311 241.41 561.26 241.104 561.205 240.787C561.166 240.592 561.132 240.397 561.094 240.231C561.091 240.188 561.091 240.145 561.094 240.103L560.993 239.635C560.993 239.602 560.993 239.563 560.993 239.53L560.877 239.046C560.877 239.018 560.877 238.984 560.877 238.957C560.838 238.79 560.793 238.617 560.743 238.45C560.743 238.45 560.743 238.411 560.743 238.389C560.693 238.211 560.643 238.033 560.587 237.833V237.799C560.532 237.616 560.476 237.432 560.415 237.243C560.348 237.054 560.287 236.865 560.215 236.687C560.148 236.492 560.075 236.308 559.998 236.13C559.491 234.831 558.803 233.61 557.956 232.503C556.103 230.128 553.243 228.42 550.261 228.536C548.671 228.682 547.112 229.076 545.644 229.705L541.749 231.14L542.834 230.639C541.699 230.67 540.578 230.909 539.529 231.346C539.005 231.573 538.55 231.936 538.213 232.398C537.875 232.859 537.667 233.403 537.61 233.972C537.61 234.639 537.849 235.301 537.766 235.963C537.627 237.076 536.62 237.799 536.097 238.773C535.791 239.356 535.653 240.013 535.696 240.67V240.709V240.932C535.699 240.954 535.699 240.976 535.696 240.998V241.126C534.072 240.425 532.453 239.691 530.862 238.901C528.197 237.588 525.493 236.047 523.829 233.555C523.273 232.753 522.884 231.886 522.355 231.073C521.75 230.212 521.077 229.401 520.341 228.648L515.384 223.279C515.006 223.997 515.49 224.842 515.874 225.549C516.282 226.295 516.59 227.092 516.792 227.919C516.897 228.183 516.897 228.478 516.792 228.742C516.611 228.96 516.377 229.126 516.113 229.226C515.657 229.51 515.309 229.938 515.124 230.442C514.939 230.945 514.926 231.496 515.089 232.008C515.264 232.511 515.566 232.96 515.967 233.31C516.368 233.66 516.854 233.9 517.376 234.005C517.728 234.046 518.074 234.13 518.405 234.256C519 234.556 519.284 235.235 519.707 235.752C520.491 236.687 521.743 237.043 522.917 237.349C524.747 239.463 526.656 241.493 528.48 243.607C531.262 246.812 534.094 250.067 537.716 252.236C538.089 252.459 538.472 252.67 538.862 252.865C538.862 252.932 538.862 252.993 538.862 253.06C538.762 253.537 538.825 254.035 539.04 254.473C539.238 254.703 539.48 254.89 539.753 255.023C540.025 255.156 540.322 255.232 540.626 255.246L543.363 255.736C543.363 256.086 543.29 256.442 543.229 256.793C543.19 257.004 543.146 257.215 543.107 257.427L543.057 257.705C543.059 257.718 543.059 257.731 543.057 257.744C543.057 257.816 543.057 257.889 543.029 257.966C543.001 258.044 543.029 258.017 543.029 258.044C543.029 258.072 543.029 258.172 543.029 258.239V258.317C543.023 258.404 543.023 258.491 543.029 258.578C543.123 259.658 543.858 260.542 544.548 261.36C544.681 261.51 544.809 261.666 544.937 261.822C544.33 262.591 543.902 263.486 543.685 264.442C543.564 265.041 543.506 265.651 543.513 266.261C543.139 266.609 542.853 267.039 542.678 267.519C542.49 268.182 542.421 268.873 542.473 269.56V269.611C542.473 269.861 542.473 270.117 542.473 270.367C542.424 271.335 542.583 272.303 542.94 273.204L543.057 273.41C542.45 274.601 541.421 275.524 540.715 276.659C539.985 277.902 539.656 279.338 539.77 280.774C539.885 282.21 540.438 283.576 541.354 284.687C541.911 285.327 542.623 285.944 542.684 286.79C542.677 287.174 542.64 287.558 542.573 287.936C542.506 288.849 542.929 289.716 543.157 290.601C543.276 290.967 543.317 291.354 543.279 291.737C543.241 292.12 543.123 292.491 542.934 292.826C542.506 293.446 542.309 294.196 542.378 294.946C542.578 296.092 542.105 297.233 542.027 298.39C541.989 298.89 542.028 299.391 541.983 299.892C541.876 300.361 541.731 300.821 541.549 301.266L541.51 301.422C540.509 301.861 539.518 302.317 538.567 302.846C538.048 303.075 537.617 303.465 537.337 303.959C537.178 304.457 537.157 304.99 537.276 305.5C537.558 307.491 537.846 309.485 538.139 311.48C538.083 311.48 538.039 311.436 537.983 311.413C538.055 312.398 538.122 313.383 538.194 314.368C538.172 315.118 538.365 315.859 538.751 316.504C538.976 316.748 539.181 317.01 539.363 317.288C539.696 317.973 539.296 318.774 538.995 319.475C538.695 320.176 538.595 321.177 539.251 321.555C539.598 321.795 539.971 321.993 540.364 322.145C539.546 325.483 540.297 329.044 541.054 332.426L542.773 340.17C542.998 341.27 543.127 342.387 543.157 343.508C543.157 343.67 543.157 343.831 543.157 343.992C543.241 345.531 543.514 347.054 543.969 348.526C544.865 351.547 544.008 355.202 544.286 358.463C544.476 360.049 544.793 361.617 545.232 363.152C547.185 370.886 548.921 378.474 549.594 386.43C550.308 387.341 551.276 388.02 552.376 388.382C552.292 389.361 552.376 390.474 552.376 391.047C552.372 391.519 552.297 391.988 552.153 392.438C551.951 392.871 551.658 393.255 551.294 393.565C550.93 393.875 550.504 394.104 550.044 394.235C549.761 394.329 549.488 394.407 549.182 394.48L549.505 394.201C547.67 393.8 545.752 394.131 544.158 395.125C543.653 395.386 543.271 395.836 543.096 396.377C543.03 396.891 543.163 397.41 543.468 397.829C544.358 399.129 545.681 400.069 547.202 400.483C548.706 400.879 550.252 401.094 551.808 401.122L554.662 401.289C554.564 401.452 554.529 401.645 554.564 401.832C554.598 402.018 554.701 402.186 554.851 402.302C555.154 402.527 555.515 402.661 555.892 402.686C557.058 402.858 558.242 402.875 559.413 402.736C559.706 402.728 559.989 402.627 560.22 402.446C560.274 402.397 560.317 402.338 560.346 402.271C560.376 402.204 560.391 402.132 560.391 402.06C560.391 401.987 560.376 401.915 560.346 401.848C560.317 401.782 560.274 401.722 560.22 401.673C560.391 401.668 560.556 401.613 560.694 401.514C560.833 401.415 560.939 401.276 560.999 401.117C561.108 400.789 561.142 400.441 561.099 400.099C561.027 398.769 560.904 396.833 560.215 395.648C560.098 395.43 559.912 395.257 559.687 395.156C559.461 395.056 559.208 395.033 558.968 395.092C558.53 392.726 558.266 390.331 558.178 387.926C558.891 387.657 559.586 387.343 560.259 386.986C558.273 383.787 558.217 379.72 558.84 375.993C559.092 374.817 559.278 373.628 559.397 372.432C559.53 370.057 559.174 367.353 557.85 365.383C560.258 366.914 562.39 368.842 564.153 371.086C566.935 374.713 568.649 379.125 572.065 382.151L573.428 380.844C574.157 382.068 574.841 383.32 575.481 384.588C575.987 385.524 576.385 386.516 576.666 387.542C576.984 389.111 577.021 390.723 576.777 392.304C576.682 393.144 576.571 393.973 576.432 394.813C576.378 395.168 576.296 395.518 576.187 395.859C576.183 395.751 576.156 395.645 576.109 395.548C575.892 395.169 575.325 395.342 574.997 395.598C574.418 396.036 573.942 396.594 573.6 397.234C573.412 397.542 573.324 397.902 573.35 398.263C573.4 398.48 573.497 398.683 573.635 398.858C573.772 399.033 573.947 399.175 574.145 399.275C575.642 400.154 577.522 399.52 579.153 398.869C579.596 398.711 580.019 398.498 580.41 398.235C581.2 397.679 581.662 396.694 582.463 396.132C582.893 395.896 583.307 395.632 583.704 395.342C584.449 394.663 584.532 393.512 585.055 392.644C585.962 391.153 587.987 390.774 588.777 389.194C589.623 387.414 588.555 385.211 587.17 384.071Z" fill="url(#paint0_linear)"/>
<path d="M552.348 391.181C552.349 391.647 552.276 392.111 552.131 392.555C551.925 392.983 551.63 393.363 551.265 393.668C550.9 393.973 550.475 394.197 550.017 394.324C549.121 394.635 548.17 394.736 547.235 395.003C546.834 395.093 546.462 395.285 546.156 395.559C545.366 396.354 545.833 397.823 546.779 398.424C547.725 399.025 548.926 398.98 550.05 398.93C552.433 398.79 554.8 398.454 557.127 397.923C557.967 397.729 558.946 397.334 559.08 396.488C559.107 396.217 559.084 395.944 559.013 395.681C558.44 392.791 558.139 389.854 558.112 386.908C558.112 386.719 553.422 386.596 552.982 386.875C552.031 387.498 552.404 390.185 552.348 391.181Z" fill="#A1616A"/>
<path d="M573.228 380.894C574.001 382.179 574.73 383.487 575.414 384.827C576.762 387.118 577.224 389.824 576.71 392.432C576.616 393.261 576.499 394.101 576.365 394.908C576.232 395.715 576.015 396.633 575.325 397.1C575.633 397.282 575.977 397.393 576.333 397.424C576.69 397.456 577.048 397.408 577.383 397.284C578.05 397.025 578.665 396.648 579.197 396.171C582.658 393.317 585.273 389.167 585.384 384.677C585.424 384.328 585.358 383.975 585.195 383.665C585.034 383.438 584.827 383.249 584.588 383.108C582.006 381.349 579.607 379.334 577.428 377.094C577.382 377.01 577.317 376.937 577.24 376.88C577.162 376.823 577.074 376.784 576.979 376.765C576.885 376.746 576.788 376.747 576.694 376.77C576.601 376.792 576.513 376.834 576.438 376.894C575.108 377.562 572.888 378.513 572.332 380.021C572.71 380.217 573.022 380.521 573.228 380.894Z" fill="#A1616A"/>
<path d="M557.127 395.87C554.217 397.094 551.051 397.539 547.925 397.934C547.736 397.989 547.537 397.998 547.344 397.962C547.151 397.927 546.969 397.847 546.812 397.729C546.708 397.597 546.646 397.437 546.633 397.27C546.62 397.102 546.657 396.935 546.74 396.788C546.912 396.497 547.141 396.244 547.413 396.043L549.505 394.296C547.674 393.897 545.759 394.224 544.164 395.208C543.913 395.333 543.691 395.507 543.508 395.719C543.326 395.931 543.187 396.177 543.101 396.443C543.035 396.95 543.169 397.463 543.474 397.873C544.368 399.161 545.692 400.087 547.207 400.488C548.71 400.884 550.254 401.097 551.808 401.122L554.651 401.289C554.556 401.451 554.523 401.641 554.557 401.825C554.592 402.01 554.693 402.175 554.84 402.291C555.148 402.508 555.51 402.637 555.886 402.663C557.051 402.83 558.233 402.847 559.402 402.713C559.695 402.706 559.978 402.604 560.209 402.424C560.262 402.377 560.305 402.318 560.334 402.253C560.364 402.188 560.379 402.117 560.379 402.046C560.379 401.974 560.364 401.904 560.334 401.838C560.305 401.773 560.262 401.715 560.209 401.667C560.379 401.664 560.544 401.609 560.682 401.51C560.82 401.41 560.925 401.271 560.982 401.111C561.093 400.788 561.129 400.443 561.088 400.104C561.01 398.797 560.893 396.889 560.203 395.731C559.514 394.574 558.061 395.464 557.127 395.87Z" fill="#3F3D56"/>
<path d="M587.097 384.321C586.176 383.638 585.17 383.077 584.104 382.652C584.061 382.616 584.01 382.591 583.956 382.579C583.901 382.567 583.845 382.567 583.791 382.581C583.737 382.594 583.686 382.621 583.644 382.657C583.602 382.694 583.569 382.739 583.548 382.791C581.64 385.38 580.151 388.252 579.136 391.303C578.58 393.039 578.101 394.886 576.911 396.31C576.755 396.494 576.515 396.683 576.298 396.577C576.082 396.471 576.182 395.932 576.015 395.637C575.848 395.342 575.23 395.437 574.902 395.692C574.326 396.122 573.851 396.673 573.511 397.306C573.322 397.608 573.234 397.963 573.261 398.318C573.311 398.532 573.408 398.733 573.544 398.905C573.681 399.077 573.854 399.217 574.051 399.314C575.547 400.182 577.428 399.559 579.058 398.914C579.5 398.757 579.923 398.548 580.315 398.291C581.1 397.734 581.562 396.772 582.363 396.215C582.793 395.983 583.207 395.723 583.603 395.437C584.349 394.763 584.427 393.628 584.955 392.777C585.862 391.309 587.882 390.93 588.672 389.373C589.545 387.62 588.477 385.445 587.097 384.321Z" fill="#3F3D56"/>
<path d="M564.554 303.641C567.731 306.028 569.066 310.262 568.927 314.212C568.788 318.162 567.386 322 566.006 325.706C564.025 331.024 562.049 336.346 560.075 341.672C560.304 342.253 560.446 342.864 560.498 343.486C560.56 343.796 560.554 344.116 560.482 344.424C560.41 344.732 560.273 345.021 560.081 345.272C559.897 345.489 559.664 345.65 559.475 345.862C559.222 346.216 559.045 346.619 558.955 347.045C558.865 347.471 558.864 347.911 558.952 348.337C559.132 349.188 559.154 350.065 559.018 350.924C558.924 351.286 558.757 351.625 558.69 351.992C558.645 352.173 558.649 352.362 558.701 352.541C558.752 352.72 558.851 352.882 558.985 353.011C559.402 353.328 560.181 353.227 560.315 353.734C565.746 358.408 570.302 364.012 573.767 370.285C575.075 372.638 576.399 375.253 578.835 376.404C576.458 378.292 574.178 380.299 572.003 382.418C568.588 379.431 566.885 375.08 564.098 371.503C562.331 369.285 560.202 367.381 557.8 365.873C559.124 367.82 559.469 370.485 559.347 372.833C559.227 374.012 559.042 375.184 558.79 376.343C558.167 380.021 558.234 384.032 560.203 387.192C558.089 388.304 555.658 389.105 553.294 388.777C551.811 388.569 550.465 387.801 549.533 386.63C548.859 378.78 547.124 371.297 545.171 363.659C544.731 362.148 544.416 360.604 544.231 359.041C543.947 355.792 544.787 352.215 543.908 349.233C543.456 347.789 543.185 346.294 543.101 344.782C543.101 344.627 543.101 344.465 543.101 344.304C543.071 343.202 542.942 342.106 542.717 341.027L540.993 333.361C540.242 330.023 539.491 326.54 540.303 323.219C539.913 323.074 539.54 322.887 539.19 322.663C538.534 322.284 538.634 321.305 538.94 320.61C539.246 319.914 539.641 319.124 539.301 318.451C539.123 318.174 538.918 317.915 538.689 317.678C538.305 317.043 538.112 316.311 538.133 315.569L537.922 312.654C539.143 313.137 540.159 314.027 540.798 315.174C539.207 312.71 539.997 309.194 541.165 306.507C541.383 305.681 541.862 304.949 542.531 304.419C543.2 303.89 544.023 303.591 544.876 303.569C551.385 302.429 559.297 299.686 564.554 303.641Z" fill="#3F3D56"/>
<path opacity="0.1" d="M561.606 320.226C561.606 320.226 558.418 322.351 558.418 323.942C558.418 325.533 557.622 339.859 557.622 339.859V349.939C557.622 349.939 558.178 355.247 557.622 356.571C557.066 357.895 557.622 363.998 557.622 364.794C557.622 365.589 558.418 356.571 558.418 356.571V347.019L559.213 325.266L561.606 320.226Z" fill="black"/>
<path d="M543.852 246.656L541.994 245.916C538.211 244.397 534.417 242.873 530.745 241.093C528.08 239.797 525.382 238.278 523.718 235.819C523.162 235.029 522.778 234.15 522.244 233.371C521.641 232.52 520.969 231.72 520.235 230.979L515.278 225.682C514.906 226.389 515.39 227.223 515.773 227.908C516.179 228.644 516.488 229.429 516.691 230.244C516.788 230.508 516.778 230.8 516.664 231.057C516.525 231.296 516.23 231.396 515.985 231.529C515.535 231.807 515.19 232.227 515.005 232.723C514.821 233.219 514.807 233.762 514.967 234.267C515.145 234.765 515.449 235.208 515.85 235.553C516.251 235.899 516.734 236.134 517.253 236.236C517.604 236.277 517.948 236.361 518.277 236.486C518.872 236.776 519.156 237.449 519.584 237.961C520.363 238.884 521.615 239.235 522.783 239.535C524.614 241.621 526.522 243.624 528.347 245.71C531.129 248.87 533.955 252.08 537.571 254.222C538.858 255.01 540.269 255.574 541.744 255.891C542.229 252.767 542.933 249.681 543.852 246.656Z" fill="#A1616A"/>
<path opacity="0.15" d="M543.852 246.656L541.994 245.916C538.211 244.397 534.417 242.873 530.745 241.093C528.08 239.797 525.382 238.278 523.718 235.819C523.162 235.029 522.778 234.15 522.244 233.371C521.641 232.52 520.969 231.72 520.235 230.979L515.278 225.682C514.906 226.389 515.39 227.223 515.773 227.908C516.179 228.644 516.488 229.429 516.691 230.244C516.788 230.508 516.778 230.8 516.664 231.057C516.525 231.296 516.23 231.396 515.985 231.529C515.535 231.807 515.19 232.227 515.005 232.723C514.821 233.219 514.807 233.762 514.967 234.267C515.145 234.765 515.449 235.208 515.85 235.553C516.251 235.899 516.734 236.134 517.253 236.236C517.604 236.277 517.948 236.361 518.277 236.486C518.872 236.776 519.156 237.449 519.584 237.961C520.363 238.884 521.615 239.235 522.783 239.535C524.614 241.621 526.522 243.624 528.347 245.71C531.129 248.87 533.955 252.08 537.571 254.222C538.858 255.01 540.269 255.574 541.744 255.891C542.229 252.767 542.933 249.681 543.852 246.656Z" fill="black"/>
<path d="M540.436 257.204C540.134 257.192 539.838 257.118 539.565 256.986C539.292 256.855 539.049 256.67 538.851 256.442C538.64 256.011 538.579 255.521 538.678 255.051C538.998 252.016 539.67 249.029 540.681 246.15C541.582 247.819 543.357 248.787 545.037 249.666C546.535 250.501 548.098 251.213 549.711 251.797C549.327 251.669 548.32 257.883 547.764 258.267C547.057 258.762 545.366 258.1 544.587 257.961L540.436 257.204Z" fill="#FF6F61"/>
<path d="M544.754 255.368C549.442 255.368 553.243 251.567 553.243 246.879C553.243 242.19 549.442 238.389 544.754 238.389C540.065 238.389 536.264 242.19 536.264 246.879C536.264 251.567 540.065 255.368 544.754 255.368Z" fill="#A1616A"/>
<path d="M543.035 253.911C543.035 253.911 548.598 258.684 546.217 261.866C543.836 265.049 542.5 267.174 545.688 267.43C548.876 267.686 559.48 262.122 559.48 262.122C559.48 262.122 549.666 254.161 551.257 249.388C552.848 244.614 543.035 253.911 543.035 253.911Z" fill="#FBBEBE"/>
<path d="M548.376 261.382C547.189 261.668 546.105 262.278 545.245 263.143C544.384 264.008 543.781 265.096 543.502 266.284C542.879 269.149 544.208 272.325 542.946 274.979C542.356 276.231 541.277 277.166 540.525 278.317C539.794 279.54 539.463 280.96 539.577 282.381C539.692 283.801 540.247 285.15 541.165 286.239C541.722 286.868 542.428 287.48 542.489 288.314C542.482 288.688 542.445 289.06 542.378 289.427C542.311 290.328 542.734 291.18 542.934 292.053C543.052 292.411 543.092 292.79 543.054 293.164C543.016 293.539 542.899 293.901 542.712 294.228C542.284 294.837 542.087 295.579 542.156 296.32C542.356 297.433 541.883 298.573 541.805 299.714C541.766 300.209 541.805 300.704 541.761 301.199C541.701 301.666 541.602 302.128 541.466 302.579L540.759 305.205C544.603 306.783 548.74 307.521 552.893 307.369C556.626 307.297 560.304 306.523 563.953 305.756C565.066 305.522 566.179 305.288 567.291 304.988C564.983 301.961 564.732 297.961 564.671 294.161C564.57 287.834 564.097 281.518 563.252 275.246C564.365 273.132 564.866 270.795 565.327 268.431C565.536 267.485 565.624 266.517 565.589 265.549C565.472 263.508 564.549 261.616 563.636 259.78C562.807 258.111 561.9 256.347 560.048 255.63C559.598 255.435 559.105 255.36 558.617 255.412C558.13 255.465 557.664 255.644 557.266 255.93C555.858 256.987 556.281 258.812 555.92 260.381C555.447 262.395 553.588 263.847 551.602 264.437C550.122 264.822 548.589 264.965 547.063 264.859C546.913 264.85 546.77 264.8 546.648 264.713C546.526 264.627 546.431 264.508 546.373 264.37C546.315 264.232 546.297 264.081 546.321 263.934C546.344 263.786 546.408 263.648 546.506 263.535C547.168 262.801 547.825 262.067 548.376 261.382Z" fill="#FF6F61"/>
<path d="M554.957 294.2C551.814 296.771 548.637 299.363 545.004 301.182C542.879 302.245 540.614 303.035 538.534 304.181C538.012 304.406 537.58 304.797 537.304 305.294C537.143 305.785 537.122 306.31 537.243 306.813L538.166 313.16C538.417 314.879 540.069 315.975 541.41 317.055C541.26 316.549 541.29 316.006 541.493 315.519C541.589 315.358 541.693 315.202 541.805 315.052C542.306 314.143 542.464 313.085 542.25 312.07C542.037 311.063 541.92 310.039 541.9 309.01C541.888 308.837 541.922 308.665 541.997 308.509C542.072 308.353 542.186 308.219 542.328 308.12C546.84 305.95 551.697 304.287 556.237 302.223C557.445 301.737 558.582 301.091 559.619 300.303C560.662 299.506 561.364 298.343 561.583 297.049C561.621 296.877 561.591 296.698 561.5 296.548C561.408 296.45 561.29 296.381 561.16 296.348C559.146 295.619 556.993 294.935 554.957 294.2Z" fill="#A1616A"/>
<path opacity="0.1" d="M546.228 267.558C544.665 267.819 543.029 268.626 542.495 270.122C542.306 270.774 542.237 271.454 542.289 272.131C542.247 273.08 542.406 274.029 542.756 274.912C543.025 275.401 543.343 275.859 543.708 276.281C547.441 281.065 549.31 287.074 552.949 291.931C553.271 292.359 553.861 292.915 553.678 293.422C553.612 293.546 553.555 293.674 553.505 293.805C553.489 293.936 553.504 294.069 553.551 294.192C553.597 294.315 553.673 294.425 553.772 294.512C553.967 294.688 554.117 294.907 554.212 295.152C554.278 295.408 554.111 295.742 553.85 295.708C554.284 297.06 555.625 297.844 556.888 298.49C558.996 299.552 561.338 300.387 563.681 300.159C564.12 298.395 564.738 296.404 564.487 294.595C564.23 293.224 563.775 291.897 563.135 290.657L561.555 287.207C560.209 284.264 558.852 281.299 556.977 278.662C556.309 277.824 555.748 276.907 555.308 275.93C554.829 274.684 553.505 273.811 552.71 272.737C551.519 271.14 550.301 269.516 548.693 268.342C548.031 267.886 547.007 267.424 546.228 267.558Z" fill="black"/>
<path d="M546.228 266.773C544.665 267.035 543.029 267.841 542.495 269.338C542.306 269.989 542.236 270.67 542.289 271.346C542.246 272.296 542.406 273.244 542.756 274.128C543.024 274.616 543.343 275.075 543.708 275.496C547.441 280.281 549.31 286.289 552.949 291.146C553.271 291.574 553.861 292.131 553.677 292.637C553.612 292.761 553.554 292.89 553.505 293.021C553.488 293.152 553.504 293.284 553.551 293.407C553.597 293.531 553.673 293.64 553.772 293.728C553.967 293.903 554.117 294.122 554.212 294.367C554.278 294.623 554.111 294.957 553.85 294.924C554.284 296.276 555.625 297.06 556.888 297.705C558.996 298.768 561.338 299.602 563.681 299.374C564.12 297.611 564.738 295.619 564.487 293.811C564.23 292.439 563.775 291.112 563.135 289.872L561.555 286.423C560.209 283.48 558.851 280.515 556.977 277.872C556.308 277.037 555.747 276.121 555.308 275.146C554.829 273.9 553.505 273.026 552.709 271.953C551.519 270.356 550.3 268.731 548.693 267.558C548.03 267.107 547.007 266.628 546.228 266.773Z" fill="#FF6F61"/>
<path d="M542.662 232.931C541.527 232.963 540.408 233.199 539.357 233.627C538.835 233.849 538.382 234.207 538.045 234.664C537.708 235.121 537.501 235.66 537.443 236.225C537.443 236.881 537.682 237.532 537.599 238.189C537.454 239.268 536.453 239.997 535.93 240.97C535.029 242.639 535.73 244.754 536.904 246.239C538.077 247.724 539.685 248.843 540.865 250.3C541.814 251.47 542.501 252.829 542.879 254.287C543.257 255.745 543.318 257.267 543.057 258.751C542.905 259.326 542.832 259.919 542.84 260.514C542.934 261.577 543.669 262.45 544.359 263.263C547.819 267.304 551.019 271.561 553.939 276.008C554.817 277.295 555.605 278.641 556.298 280.036C556.988 281.483 557.505 283.029 558.468 284.309C559.345 285.41 560.423 286.334 561.644 287.035C564.722 288.934 568.213 290.06 571.82 290.317L569.739 285.16C569.295 284.272 569.081 283.287 569.116 282.295C569.344 280.442 571.219 279.218 571.831 277.455C572.156 276.286 572.117 275.046 571.72 273.9C570.985 271.285 569.494 268.932 568.721 266.339C568.031 264.061 567.876 261.655 568.27 259.307C568.528 258.29 568.639 257.241 568.599 256.192C568.215 253.037 564.51 251.53 562.796 248.848C561.683 247.129 561.477 245.009 561.127 242.995C560.571 240.058 559.63 237.126 557.789 234.784C555.947 232.442 553.088 230.762 550.1 230.89C548.512 231.035 546.956 231.425 545.488 232.047L541.594 233.46" fill="#3F3D56"/>
<g opacity="0.1">
<path opacity="0.1" d="M560.048 239.513C560.382 241.326 560.604 243.229 561.444 244.848C561.327 244.219 561.227 243.585 561.11 242.962C560.834 241.379 560.398 239.828 559.808 238.333C559.909 238.745 559.975 239.134 560.048 239.513Z" fill="black"/>
<path opacity="0.1" d="M567.213 255.841C566.819 258.189 566.973 260.595 567.664 262.873C567.856 263.491 568.079 264.098 568.332 264.693C567.991 262.91 567.972 261.08 568.276 259.29C568.534 258.273 568.644 257.224 568.604 256.175C568.48 255.291 568.117 254.458 567.553 253.766C567.492 254.456 567.33 255.151 567.213 255.841Z" fill="black"/>
<path opacity="0.1" d="M571.725 273.883C571.508 273.125 571.242 272.382 570.93 271.658C571.068 272.438 571.015 273.24 570.774 273.994C570.168 275.758 568.287 276.982 568.059 278.834C568.025 279.827 568.241 280.812 568.688 281.7L569.105 282.734C569.094 282.584 569.094 282.434 569.105 282.284C569.333 280.431 571.208 279.207 571.82 277.444C572.151 276.275 572.118 275.033 571.725 273.883Z" fill="black"/>
<path opacity="0.1" d="M560.587 283.569C559.366 282.868 558.288 281.944 557.411 280.843C556.454 279.563 555.931 278.017 555.241 276.576C554.549 275.178 553.761 273.831 552.882 272.542C549.962 268.095 546.762 263.838 543.302 259.797L542.94 259.363C542.858 259.728 542.826 260.102 542.845 260.475C542.94 261.538 543.674 262.412 544.364 263.224C547.824 267.265 551.024 271.522 553.945 275.969C554.822 277.256 555.61 278.602 556.303 279.997C556.993 281.444 557.511 282.99 558.473 284.27C559.351 285.371 560.429 286.296 561.65 286.996C564.727 288.895 568.219 290.021 571.826 290.278L570.424 286.801C566.938 286.506 563.569 285.399 560.587 283.569Z" fill="black"/>
<path opacity="0.1" d="M539.808 246.834C538.606 245.377 537.026 244.264 535.847 242.778C535.741 242.639 535.641 242.495 535.541 242.35C535.508 243.771 535.995 245.156 536.909 246.244C538.078 247.735 539.691 248.848 540.87 250.306C541.337 250.876 541.74 251.495 542.072 252.153C541.83 250.203 541.045 248.36 539.808 246.834Z" fill="black"/>
</g>
<path d="M532.214 175.89L529.398 173.059C529.26 172.919 529.095 172.807 528.913 172.731C528.731 172.656 528.536 172.616 528.339 172.616C528.141 172.616 527.946 172.656 527.764 172.731C527.582 172.807 527.417 172.919 527.279 173.059L509.609 190.555L502.137 183.023C502 182.884 501.836 182.773 501.656 182.698C501.475 182.623 501.281 182.584 501.086 182.584C500.89 182.584 500.697 182.623 500.516 182.698C500.336 182.773 500.172 182.884 500.034 183.023L497.191 185.832C496.912 186.115 496.756 186.497 496.756 186.895C496.756 187.292 496.912 187.674 497.191 187.957L508.535 199.39C508.819 199.669 509.2 199.826 509.598 199.826C509.996 199.826 510.377 199.669 510.661 199.39L532.214 177.993C532.491 177.714 532.647 177.336 532.647 176.942C532.647 176.548 532.491 176.17 532.214 175.89Z" fill="#3ACC6C"/>
<path d="M368.647 280.481L365.832 277.65C365.694 277.509 365.528 277.398 365.347 277.322C365.165 277.246 364.969 277.207 364.772 277.207C364.575 277.207 364.38 277.246 364.198 277.322C364.016 277.398 363.851 277.509 363.713 277.65L346.043 295.146L338.571 287.613C338.434 287.475 338.27 287.364 338.089 287.289C337.909 287.214 337.715 287.175 337.52 287.175C337.324 287.175 337.13 287.214 336.95 287.289C336.769 287.364 336.606 287.475 336.468 287.613L333.625 290.395C333.346 290.678 333.189 291.06 333.189 291.458C333.189 291.855 333.346 292.237 333.625 292.52L344.969 303.953C345.252 304.232 345.634 304.389 346.032 304.389C346.429 304.389 346.811 304.232 347.094 303.953L368.647 282.556C368.917 282.278 369.068 281.906 369.068 281.519C369.068 281.132 368.917 280.759 368.647 280.481Z" fill="#3ACC6C"/>
</g>
<defs>
<linearGradient id="paint0_linear" x1="551.958" y1="402.802" x2="551.958" y2="223.268" gradientUnits="userSpaceOnUse">
<stop stop-color="#808080" stop-opacity="0.25"/>
<stop offset="0.54" stop-color="#808080" stop-opacity="0.12"/>
<stop offset="1" stop-color="#808080" stop-opacity="0.1"/>
</linearGradient>
<clipPath id="clip0">
<rect width="628" height="417" fill="white"/>
</clipPath>
</defs>
</svg>
