<svg width="77" height="87" viewBox="0 0 77 87" fill="none" xmlns="http://www.w3.org/2000/svg">
<path d="M59.0454 86.9286C56.9123 86.9286 54.8873 85.8978 53.629 84.1717C53.3197 83.7472 52.8606 83.5037 52.3698 83.5037H47.4877C46.597 83.5037 45.7992 83.0433 45.3538 82.2718C44.9085 81.5003 44.9083 80.5792 45.3538 79.8077L47.0126 76.9347C47.9875 75.2462 48.5028 73.3231 48.5028 71.3733V70.4894L45.2538 69.9037C43.1253 69.5198 41.7059 67.4759 42.0896 65.3474C42.4735 63.219 44.5173 61.7988 46.6457 62.1831L48.5026 62.5178V60.5159C48.5026 54.7025 53.2321 49.9732 59.0454 49.9732C64.8588 49.9732 69.5882 54.7027 69.5882 60.5159V62.5178L71.445 62.1831C73.5746 61.7991 75.6177 63.219 76.0013 65.3474C76.1872 66.3786 75.9605 67.4202 75.3629 68.2809C74.7652 69.1415 73.8683 69.7179 72.837 69.9037L69.5881 70.4894V71.3733C69.5881 73.3229 70.1034 75.2459 71.0783 76.9347L72.737 79.8077C73.1824 80.5791 73.1824 81.5003 72.737 82.2718C72.2917 83.0431 71.4939 83.5037 70.603 83.5037H65.7209C65.2301 83.5037 64.771 83.7472 64.4617 84.1717C63.2037 85.8978 61.1788 86.9286 59.0454 86.9286ZM47.6349 80.9546H52.3699C53.6652 80.9546 54.906 81.5959 55.689 82.6701C56.4693 83.7404 57.724 84.3797 59.0456 84.3797C60.3672 84.3797 61.6221 83.7406 62.4022 82.6701C63.1852 81.5959 64.426 80.9546 65.7214 80.9546H70.4563L68.8713 78.2089C67.6729 76.1331 67.0396 73.7694 67.0396 71.373V69.424C67.0396 68.8074 67.4811 68.2792 68.0879 68.1698L72.3851 67.395C73.1304 67.2605 73.6275 66.5449 73.4931 65.7995C73.3588 65.054 72.6423 64.5572 71.8975 64.6915L68.5402 65.297C68.1685 65.364 67.7863 65.263 67.4967 65.0207C67.2069 64.7786 67.0395 64.4204 67.0395 64.0428V60.5161C67.0395 56.1083 63.4535 52.5224 59.0456 52.5224C54.6379 52.5224 51.0517 56.1083 51.0517 60.5161V64.0428C51.0517 64.4204 50.8843 64.7786 50.5945 65.0207C50.3049 65.2627 49.9225 65.3638 49.551 65.297L46.1936 64.6915C45.4482 64.5572 44.7324 65.0542 44.5981 65.7995C44.4638 66.5449 44.9608 67.2605 45.7061 67.395L50.0033 68.1698C50.6101 68.2792 51.0516 68.8074 51.0516 69.424V71.3731C51.0516 73.7696 50.4183 76.1335 49.22 78.2091L47.6349 80.9546Z" fill="#215BBE" fill-opacity="0.9"/>
<path d="M25.6404 39.6569H18.6331C17.6493 39.6569 16.8489 38.8566 16.8489 37.8727V32.0694C16.8489 31.3654 17.4195 30.7948 18.1235 30.7948C18.8274 30.7948 19.398 31.3653 19.398 32.0694V37.108H24.8759V24.0568C24.8759 23.1666 25.6002 22.4425 26.4902 22.4425H29.159V16.9643H26.4902C25.6 16.9643 24.8759 16.24 24.8759 15.35V13.5615C24.8759 10.5097 27.3586 8.02697 30.4104 8.02697H31.6181V2.54894H30.4106C24.3382 2.54894 19.398 7.4891 19.398 13.5617V15.35C19.398 16.2402 18.6737 16.9643 17.7837 16.9643H15.1149V22.4422H17.7837C18.6739 22.4422 19.398 23.1665 19.398 24.0565V25.6512C19.398 26.3552 18.8274 26.9258 18.1235 26.9258C17.4195 26.9258 16.8489 26.3553 16.8489 25.6512V24.9911H14.35C13.3662 24.9911 12.5658 24.1908 12.5658 23.2069V16.1996C12.5658 15.2157 13.3663 14.4154 14.35 14.4154H16.8489V13.5617C16.8489 6.08381 22.9325 0 30.4104 0H32.3826C33.3665 0 34.1669 0.800354 34.1669 1.78424V8.7915C34.1669 9.77539 33.3664 10.5757 32.3826 10.5757H30.4103C28.7639 10.5757 27.4246 11.9152 27.4246 13.5614V14.4152H29.9235C30.9074 14.4152 31.7077 15.2156 31.7077 16.1995V23.2067C31.7077 24.1906 30.9072 24.991 29.9235 24.991H27.4246V37.8722C27.4246 38.8566 26.6241 39.6569 25.6404 39.6569Z" fill="#215BBE" fill-opacity="0.9"/>
<path d="M63.0756 46.1119H43.6552C39.7241 46.1119 36.5259 42.9137 36.5259 38.9826V19.5623C36.5259 15.6312 39.7241 12.4328 43.6552 12.4328H45.7865C46.4904 12.4328 47.0611 13.0033 47.0611 13.7074C47.0611 14.4115 46.4904 14.9819 45.7865 14.9819H43.6552C41.1295 14.9819 39.0748 17.0368 39.0748 19.5623V38.9826C39.0748 41.5082 41.1295 43.5628 43.6552 43.5628H63.0754C65.6011 43.5628 67.6558 41.5081 67.6558 38.9826V19.5623C67.6558 17.0367 65.6011 14.9819 63.0754 14.9819H52.219C51.5151 14.9819 50.9445 14.4115 50.9445 13.7074C50.9445 13.0033 51.5151 12.4328 52.219 12.4328H63.0754C67.0066 12.4328 70.2048 15.631 70.2048 19.5623V38.9826C70.2049 42.9137 67.0068 46.1119 63.0756 46.1119Z" fill="#FF8500"/>
<path d="M53.3654 36.7316C49.2522 36.7316 45.906 33.3853 45.906 29.2723C45.906 25.1592 49.2522 21.813 53.3654 21.813C57.4785 21.813 60.8248 25.1592 60.8248 29.2723C60.8248 33.3853 57.4785 36.7316 53.3654 36.7316ZM53.3654 24.3621C50.6579 24.3621 48.4551 26.5648 48.4551 29.2723C48.4551 31.9799 50.6579 34.1825 53.3654 34.1825C56.0729 34.1825 58.2757 31.9799 58.2757 29.2723C58.2757 26.5648 56.0729 24.3621 53.3654 24.3621Z" fill="#FF8500"/>
<path d="M62.1125 22.3266C63.1074 22.3266 63.9139 21.5201 63.9139 20.5252C63.9139 19.5303 63.1074 18.7238 62.1125 18.7238C61.1177 18.7238 60.3112 19.5303 60.3112 20.5252C60.3112 21.5201 61.1177 22.3266 62.1125 22.3266Z" fill="#FF8500"/>
<path d="M24.7687 74.7681C17.4248 74.7681 10.9462 69.8983 8.89356 62.8827C6.68893 61.7312 5.03084 59.7863 4.24526 57.444C2.49972 57.2688 1.24231 56.4649 0.609874 55.9617C0.16861 55.6105 -0.0549935 55.0667 0.0115612 54.507C0.0781159 53.9477 0.422944 53.4718 0.934159 53.2339L1.13179 53.1421C0.723459 52.6519 0.437545 52.173 0.244502 51.786C-0.00694542 51.2825 0.0198805 50.696 0.315811 50.2172C0.612251 49.7379 1.12584 49.4517 1.68969 49.4517H5.11403C6.84446 46.5712 9.94146 44.8049 13.3283 44.8049C18.01 44.8049 21.9379 48.1683 22.7534 52.6594C25.5018 52.0986 27.9729 50.7453 29.9527 48.7062C30.6138 48.0255 31.207 47.2754 31.7161 46.4768C32.0571 45.9418 32.6621 45.6246 33.2972 45.6564C33.9353 45.6854 34.5137 46.0566 34.8068 46.6246C35.6231 48.2068 36.1756 49.9043 36.4489 51.6701C36.5565 52.3657 36.08 53.017 35.3844 53.1246C34.6888 53.2314 34.0375 52.7557 33.9298 52.0601C33.7652 50.996 33.4808 49.9615 33.0813 48.971C32.6787 49.5001 32.2439 50.0054 31.7812 50.4819C29.1703 53.1709 25.6861 54.9066 21.97 55.3689C21.5746 55.4178 21.1721 55.2997 20.8659 55.0433C20.5588 54.7861 20.3705 54.409 20.3495 54.0087C20.1517 50.2773 17.0676 47.3542 13.3281 47.3542C10.7016 47.3542 8.31239 48.8019 7.09251 51.1322C6.81254 51.6679 6.26414 52.001 5.66192 52.001H3.56833C3.67598 52.0959 3.79228 52.1889 3.91775 52.2782C4.33507 52.575 4.56547 53.0765 4.51861 53.5871C4.47242 54.089 4.16427 54.5334 3.71197 54.7533C4.07751 54.861 4.49263 54.9251 4.95274 54.9294H4.9597C5.69282 54.9294 6.33324 55.4289 6.51796 56.1464C7.03699 58.1637 8.41664 59.8371 10.3028 60.738C10.7754 60.9631 11.125 61.382 11.2612 61.8867C12.9045 67.9704 18.4589 72.2193 24.7687 72.2193C29.368 72.2193 33.6011 69.9887 36.2034 66.2943C34.5373 66.6386 32.8161 66.7282 31.0719 66.5401C30.4863 66.4766 29.9989 66.0936 29.7995 65.5401C29.6007 64.9883 29.7301 64.3841 30.1372 63.9618C30.1386 63.9603 30.14 63.9589 30.141 63.9579C31.749 62.3015 32.929 60.2662 33.557 58.0678C33.7502 57.3909 34.4558 56.9995 35.1326 57.1922C35.8093 57.3856 36.2014 58.0911 36.008 58.7678C35.4628 60.6763 34.5665 62.4808 33.3791 64.0778C34.7112 64.0275 36.0207 63.7898 37.279 63.3693C37.9758 63.1362 38.7338 63.3467 39.2096 63.9051C39.6833 64.4611 39.7702 65.2394 39.4311 65.8873C36.5644 71.365 30.9461 74.7681 24.7687 74.7681Z" fill="#FF8500"/>
</svg>
