<svg width="290" height="251" viewBox="0 0 290 251" fill="none" xmlns="http://www.w3.org/2000/svg">
<g clip-path="url(#clip0)">
<path d="M119.156 164.465C119.889 164.006 120.628 163.526 121.351 163.039L121.842 163.765C121.111 164.258 120.364 164.743 119.623 165.207L119.156 164.465Z" fill="#E6E6E6"/>
<path d="M34.4235 34.5614C35.4015 33.9028 36.4026 33.2606 37.3992 32.6524L37.8571 33.3996C36.3649 34.3101 34.8712 35.2928 33.4365 36.3074L32.929 35.5926C33.4216 35.2444 33.9197 34.9007 34.4235 34.5614ZM28.6678 38.827L29.2231 39.5055C27.8586 40.6163 26.5184 41.7861 25.2385 42.9823L24.6386 42.3431C25.9327 41.1337 27.2881 39.9506 28.6678 38.827ZM42.057 30.0203C43.6355 29.1982 45.2598 28.4217 46.885 27.7121L47.2365 28.5144C45.6302 29.2159 44.0243 29.9837 42.4636 30.7969L42.057 30.0203ZM20.8602 46.1268L21.5029 46.7237C20.3061 48.0075 19.1389 49.3496 18.0341 50.7127L17.3514 50.1623C18.4692 48.7832 19.6496 47.4255 20.8602 46.1268ZM51.8611 25.7406C53.5338 25.1435 55.2502 24.597 56.9618 24.1161L57.1998 24.9586C55.5071 25.4346 53.8105 25.9751 52.1564 26.5653L51.8611 25.7406ZM14.1307 54.4294L14.85 54.9315C13.8424 56.3674 12.8725 57.8558 11.9676 59.3546L11.2158 58.9024C12.1311 57.3867 13.1116 55.8819 14.1307 54.4294ZM62.1703 22.8444C63.9149 22.4822 65.6922 22.1763 67.453 21.9356L67.5723 22.8036C65.8316 23.0415 64.0741 23.3438 62.3493 23.7021L62.1703 22.8444ZM8.6151 63.5661L9.3963 63.9655C8.59572 65.5262 7.83883 67.1338 7.14791 68.7433L6.34063 68.3986C7.03976 66.7706 7.80513 65.1449 8.6151 63.5661ZM72.7841 21.3915C74.5611 21.2716 76.3624 21.2115 78.1391 21.2136L78.138 22.0893C76.3816 22.0875 74.6002 22.1465 72.843 22.265L72.7841 21.3915ZM4.40271 73.3754L5.2313 73.6645C4.65097 75.3198 4.1208 77.0157 3.65538 78.7056L2.80881 78.4739C3.27959 76.7644 3.81571 75.0491 4.40271 73.3754ZM83.493 21.4016C85.2656 21.5245 87.0578 21.71 88.8203 21.9533L88.6998 22.8207C86.9574 22.5804 85.1851 22.3969 83.432 22.2754L83.493 21.4016ZM1.56677 83.6698L2.42703 83.8437C2.07793 85.5626 1.78336 87.3154 1.55205 89.054L0.681664 88.9385C0.915823 87.1805 1.21361 85.4079 1.56677 83.6698V83.6698ZM94.0966 22.8659C95.8376 23.2283 97.5876 23.6553 99.2977 24.1344L99.0603 24.9774C97.3693 24.5034 95.639 24.0817 93.9175 23.7232L94.0966 22.8659ZM0.159199 94.2571L1.03495 94.3133C0.923061 96.0617 0.870424 97.8389 0.878418 99.5949L0.00086964 99.5987C-0.00760196 97.8229 0.0458688 96.0256 0.159187 94.2571H0.159199ZM104.399 25.753C106.074 26.3478 107.749 27.0081 109.377 27.7149L109.026 28.5182C107.417 27.8193 105.761 27.1664 104.104 26.5778L104.399 25.753ZM0.209863 104.941L1.08492 104.877C1.21366 106.627 1.40515 108.396 1.65423 110.133L0.785468 110.256C0.533416 108.5 0.33967 106.711 0.209863 104.941ZM114.207 30.0112C115.784 30.8279 117.351 31.7099 118.867 32.6322L118.41 33.3796C116.911 32.468 115.361 31.5958 113.802 30.7882L114.207 30.0112ZM1.72633 115.521L2.58452 115.337C2.95356 117.055 3.3872 118.781 3.87378 120.468L3.03018 120.71C2.53779 119.004 2.09904 117.258 1.72633 115.521ZM123.333 35.5651C124.784 36.5909 126.217 37.6803 127.593 38.8027L127.037 39.4805C125.677 38.3707 124.26 37.294 122.826 36.2794L123.333 35.5651ZM4.68834 125.79L5.51354 125.491C6.11518 127.139 6.78209 128.786 7.49534 130.388L6.69329 130.743C5.97185 129.124 5.29747 127.457 4.68834 125.79ZM131.617 42.326C132.911 43.5406 134.18 44.8162 135.388 46.1173L134.744 46.7125C133.55 45.426 132.295 44.1649 131.015 42.9642L131.617 42.326ZM9.03401 135.546L9.80984 135.137C10.6308 136.684 11.5173 138.225 12.4442 139.718L11.6982 140.179C10.7607 138.67 9.86438 137.111 9.03401 135.546ZM138.89 50.1576C140.004 51.5358 141.086 52.972 142.108 54.4264L141.389 54.9288C140.379 53.4903 139.308 52.0703 138.206 50.7076L138.89 50.1576ZM15.3846 144.111C16.41 145.538 17.4962 146.946 18.6131 148.296L17.9364 148.854C16.8065 147.488 15.7081 146.064 14.6709 144.621L15.3846 144.111ZM22.1203 152.252C23.3316 153.527 24.6003 154.774 25.8921 155.958L25.2981 156.603C23.9916 155.405 22.7081 154.144 21.4833 152.855L22.1203 152.252ZM29.9109 159.396C31.2827 160.489 32.7097 161.549 34.1527 162.545L33.6533 163.265C32.1937 162.258 30.7503 161.186 29.3633 160.08L29.9109 159.396ZM38.6036 165.396C40.115 166.292 41.6756 167.147 43.2416 167.936L42.846 168.717C41.2619 167.919 39.6838 167.055 38.1553 166.149L38.6036 165.396ZM48.0445 170.153C49.6659 170.835 51.3297 171.469 52.9886 172.037L52.7038 172.865C51.0259 172.291 49.3432 171.649 47.7032 170.96L48.0445 170.153ZM58.0516 173.581C59.7486 174.036 61.4835 174.439 63.2084 174.778L63.0388 175.637C61.2943 175.294 59.5398 174.887 57.8235 174.427L58.0516 173.581ZM68.4356 175.621C70.1819 175.842 71.9563 176.005 73.7094 176.107L73.6586 176.981C71.8856 176.878 70.091 176.713 68.3253 176.49L68.4356 175.621ZM79.0042 176.234C80.7653 176.215 82.5459 176.136 84.2965 175.998L84.366 176.871C82.5951 177.01 80.7946 177.091 79.0133 177.109L79.0042 176.234ZM89.5611 175.4C91.3023 175.141 93.0554 174.819 94.7725 174.442L94.9612 175.297C93.2248 175.678 91.4513 176.004 89.6902 176.266L89.5611 175.4ZM99.9058 173.127C101.592 172.632 103.282 172.072 104.93 171.463L105.236 172.284C103.569 172.901 101.859 173.467 100.154 173.967L99.9058 173.127ZM109.828 169.457C111.429 168.737 113.026 167.951 114.576 167.121L114.991 167.893C113.423 168.732 111.808 169.527 110.189 170.256L109.828 169.457Z" fill="#E6E6E6"/>
<path d="M144.345 59.4651L145.097 59.0134C145.554 59.7709 146.001 60.5399 146.425 61.2993L145.658 61.7253C145.239 60.9747 144.797 60.2142 144.345 59.4651Z" fill="#E6E6E6"/>
<path d="M182.339 251C241.799 251 290 248.101 290 244.525C290 240.949 241.799 238.05 182.339 238.05C122.88 238.05 74.6787 240.949 74.6787 244.525C74.6787 248.101 122.88 251 182.339 251Z" fill="#3F3D56"/>
<path d="M201.637 58.9595C201.637 58.9595 204.654 98.0828 200.431 99.2866C196.207 100.49 181.125 109.519 156.992 107.111C156.992 107.111 133.463 119.751 137.083 107.713C140.703 95.6752 156.992 98.6847 156.992 98.6847C156.992 98.6847 185.951 92.6657 187.158 88.4524C188.364 84.2392 183.538 66.7841 185.348 66.1822C187.158 65.5803 201.637 58.9595 201.637 58.9595Z" fill="#A0616A"/>
<path d="M140.555 97.9784L148.656 96.1066C149.047 96.0163 149.457 96.0614 149.819 96.2344C150.181 96.4074 150.473 96.6981 150.647 97.0587L158.945 114.226C159.035 114.413 159.084 114.618 159.087 114.826C159.089 115.034 159.047 115.24 158.961 115.429C158.876 115.619 158.75 115.788 158.592 115.924C158.435 116.06 158.249 116.159 158.049 116.216L149.816 118.55C149.375 118.675 148.904 118.635 148.49 118.439C148.076 118.243 147.748 117.903 147.566 117.483L142.272 105.213L142.11 105.302L141.103 102.978L141.27 102.892L139.792 99.4675C139.729 99.3208 139.699 99.162 139.704 99.0024C139.709 98.8428 139.75 98.6863 139.823 98.544C139.895 98.4018 139.999 98.2774 140.125 98.1796C140.252 98.0818 140.399 98.0131 140.555 97.9784Z" fill="#3F3D56"/>
<path d="M147.68 96.7436L148.626 96.5251C148.897 96.4623 149.182 96.4941 149.433 96.6152C149.684 96.7363 149.886 96.9393 150.005 97.1906L158.105 114.248C158.151 114.346 158.176 114.454 158.178 114.562C158.179 114.671 158.157 114.779 158.113 114.878C158.068 114.977 158.003 115.066 157.922 115.138C157.84 115.21 157.744 115.263 157.639 115.294L149.464 117.755C149.234 117.825 148.986 117.807 148.767 117.705C148.549 117.604 148.376 117.426 148.281 117.205L140.617 99.4106C140.568 99.2954 140.544 99.1708 140.548 99.0455C140.552 98.9202 140.583 98.7973 140.64 98.6855C140.697 98.5736 140.778 98.4756 140.877 98.3983C140.975 98.3209 141.09 98.2662 141.213 98.2379L142.11 98.0306C142.196 98.0106 142.287 98.0196 142.369 98.0564C142.45 98.0932 142.516 98.1556 142.558 98.234C142.596 98.3033 142.654 98.3584 142.726 98.3908C142.798 98.4233 142.878 98.4313 142.955 98.4136L147.213 97.4296C147.364 97.3949 147.495 97.305 147.581 97.1778C147.668 97.0506 147.703 96.8955 147.68 96.7436Z" fill="#6C63FF"/>
<path d="M165.5 127.171C165.5 127.171 167.851 183.693 171.471 192.119C174.487 199.138 176.246 222.027 176.75 229.477C176.851 230.971 176.901 231.844 176.901 231.844C176.901 231.844 186.554 231.844 187.157 229.437C187.761 227.029 189.571 200.546 187.157 192.119C184.744 183.693 190.235 125.365 190.235 125.365L165.5 127.171Z" fill="#2F2E41"/>
<path d="M179.315 228.835C179.315 228.835 173.281 230.641 172.075 233.048C170.868 235.456 150.959 239.669 156.992 242.679C163.025 245.688 181.124 240.271 181.124 240.271C181.124 240.271 190.777 239.669 190.174 236.058C189.571 232.446 187.374 227.997 187.374 227.997L179.315 228.835Z" fill="#2F2E41"/>
<path d="M196.207 235.315C196.207 235.315 190.174 237.121 188.967 239.529C187.761 241.936 167.851 246.15 173.885 249.159C179.918 252.169 198.017 246.752 198.017 246.752C198.017 246.752 207.67 246.15 207.067 242.538C206.463 238.927 204.266 234.477 204.266 234.477L196.207 235.315Z" fill="#2F2E41"/>
<path d="M170.868 125.77L179.315 140.216L193.411 190.44C193.411 190.44 191.984 236.519 193.794 236.519C195.604 236.519 205.257 239.529 205.86 236.519C206.37 233.977 213.127 209.625 209.759 193.416C207.568 183.172 206.159 172.777 205.543 162.32L204.05 134.197C204.05 134.197 210.083 123.363 203.447 121.557C196.811 119.751 170.868 125.77 170.868 125.77Z" fill="#2F2E41"/>
<path d="M178.711 33.0779C186.708 33.0779 193.19 26.6104 193.19 18.6323C193.19 10.6543 186.708 4.18677 178.711 4.18677C170.714 4.18677 164.231 10.6543 164.231 18.6323C164.231 26.6104 170.714 33.0779 178.711 33.0779Z" fill="#A0616A"/>
<path d="M176.901 28.2627C176.901 28.2627 179.314 47.5234 178.711 48.7272C178.108 49.931 193.191 35.4854 193.191 35.4854C193.191 35.4854 187.761 27.0589 188.967 22.8456L176.901 28.2627Z" fill="#A0616A"/>
<path d="M210.687 47.5234C210.687 47.5234 193.794 35.4855 193.191 33.0779L180.521 43.912L178.368 41.3555C178.368 41.3555 168.455 51.1348 168.455 55.3481C168.455 59.5614 167.852 72.2012 169.661 75.8126C171.471 79.424 164.232 125.168 164.232 125.168C164.232 125.168 170.265 130.585 170.868 131.187C171.471 131.789 195.604 127.576 195.604 127.576C195.604 127.576 207.67 126.372 207.67 124.566C207.67 122.761 204.05 95.6752 205.257 88.4524C206.464 81.2297 210.687 47.5234 210.687 47.5234Z" fill="#D0CDE1"/>
<path d="M214.307 64.3765C214.307 64.3765 217.323 103.5 213.1 104.704C208.877 105.907 193.794 114.936 169.661 112.528C169.661 112.528 146.132 125.168 149.752 113.13C153.372 101.092 169.661 104.102 169.661 104.102C169.661 104.102 198.62 98.0827 199.827 93.8694C201.034 89.6562 196.207 72.2011 198.017 71.5992C199.827 70.9973 214.307 64.3765 214.307 64.3765Z" fill="#A0616A"/>
<path d="M172.526 11.4161C174.505 10.7133 176.689 10.3524 178.707 10.935C181.563 11.7595 183.541 14.2573 185.675 16.3234C187.809 18.3894 190.801 20.2202 193.61 19.2486C193.44 18.0338 193.76 16.8014 194.499 15.8209C194.811 15.4102 195.209 15.0204 195.288 14.5107C195.408 13.737 194.756 13.0697 194.56 12.3115C194.217 10.9828 195.157 9.16384 194.002 8.41915C193.697 8.22258 193.311 8.17776 193.013 7.9703C191.846 7.15606 193.142 5.13094 192.37 3.93642C192.139 3.62796 191.839 3.37789 191.493 3.20628C185.895 -0.0526492 179.048 -0.0615912 172.567 0.0204961C171.665 0.0319225 170.409 0.478986 170.663 1.34265C169.438 0.465506 167.834 1.69717 166.847 2.83403L164.826 5.16093C163.877 6.17283 163.048 7.29119 162.357 8.49359C161.74 9.67129 161.603 11.4819 162.832 11.9953C161.918 11.6136 160.81 17.011 165.021 16.1229C167.467 15.607 169.866 12.3609 172.526 11.4161Z" fill="#2F2E41"/>
<path d="M201.034 48.7272L210.687 47.5234C210.687 47.5234 220.34 66.1823 214.91 69.1917C209.48 72.2012 195.604 74.6088 195.604 73.405C195.604 72.2013 201.034 48.7272 201.034 48.7272Z" fill="#D0CDE1"/>
<path d="M251.22 240.752C251.119 240.588 248.744 236.632 247.921 228.416C247.166 220.879 247.652 208.175 254.256 190.453C266.767 156.881 251.372 129.793 251.215 129.523L251.975 129.083C252.014 129.152 255.987 136.058 258.334 147.055C261.434 161.636 260.305 176.795 255.079 190.758C242.589 224.273 251.874 240.139 251.969 240.296L251.22 240.752Z" fill="#3F3D56"/>
<path d="M246.328 127.552C249.479 127.552 252.034 125.003 252.034 121.859C252.034 118.715 249.479 116.167 246.328 116.167C243.177 116.167 240.622 118.715 240.622 121.859C240.622 125.003 243.177 127.552 246.328 127.552Z" fill="#6C63FF"/>
<path d="M264.323 148.57C267.474 148.57 270.029 146.021 270.029 142.877C270.029 139.733 267.474 137.185 264.323 137.185C261.172 137.185 258.617 139.733 258.617 142.877C258.617 146.021 261.172 148.57 264.323 148.57Z" fill="#6C63FF"/>
<path d="M252.034 162.582C255.185 162.582 257.739 160.033 257.739 156.889C257.739 153.745 255.185 151.197 252.034 151.197C248.882 151.197 246.328 153.745 246.328 156.889C246.328 160.033 248.882 162.582 252.034 162.582Z" fill="#6C63FF"/>
<path d="M266.956 174.404C270.108 174.404 272.662 171.856 272.662 168.712C272.662 165.568 270.108 163.02 266.956 163.02C263.805 163.02 261.251 165.568 261.251 168.712C261.251 171.856 263.805 174.404 266.956 174.404Z" fill="#6C63FF"/>
<path d="M247.645 192.795C250.796 192.795 253.351 190.247 253.351 187.103C253.351 183.959 250.796 181.41 247.645 181.41C244.494 181.41 241.939 183.959 241.939 187.103C241.939 190.247 244.494 192.795 247.645 192.795Z" fill="#6C63FF"/>
<path d="M254.667 240.961C254.667 240.961 248.961 226.949 266.079 216.44L254.667 240.961Z" fill="#3F3D56"/>
<path d="M247.65 240.707C247.65 240.707 245.053 225.807 224.955 225.934L247.65 240.707Z" fill="#3F3D56"/>
<path d="M87.3349 124.548C84.5411 124.548 81.8101 125.374 79.4871 126.923C77.1641 128.471 75.3536 130.672 74.2845 133.247C73.2153 135.823 72.9356 138.656 73.4807 141.39C74.0257 144.123 75.371 146.634 77.3466 148.605C79.3221 150.576 81.839 151.918 84.5791 152.462C87.3192 153.006 90.1594 152.727 92.7406 151.66C95.3217 150.594 97.5278 148.787 99.08 146.47C100.632 144.152 101.461 141.428 101.461 138.64C101.461 134.903 99.9724 131.318 97.3233 128.675C94.6742 126.033 91.0813 124.548 87.3349 124.548ZM94.316 135.066C94.3234 135.218 94.3271 135.374 94.3271 135.53C94.3271 140.285 90.7036 145.767 84.0704 145.767C82.1132 145.771 80.1973 145.206 78.5569 144.141C78.8421 144.175 79.1291 144.192 79.4163 144.193C81.0392 144.196 82.6158 143.653 83.8918 142.653C83.1396 142.638 82.4106 142.39 81.8069 141.942C81.2032 141.494 80.755 140.869 80.5249 140.155C80.7478 140.2 80.9747 140.222 81.202 140.222C81.5224 140.221 81.8414 140.179 82.1507 140.095C81.335 139.931 80.6014 139.49 80.0745 138.847C79.5476 138.204 79.2599 137.4 79.26 136.569V136.525C79.7608 136.806 80.3228 136.96 80.897 136.974C80.1329 136.466 79.5917 135.686 79.3836 134.794C79.1756 133.902 79.3163 132.964 79.7772 132.171C80.6805 133.283 81.8087 134.193 83.0882 134.841C84.3677 135.489 85.7697 135.86 87.2028 135.931C87.1396 135.662 87.1084 135.387 87.1098 135.111C87.109 134.39 87.3257 133.685 87.7319 133.088C88.138 132.492 88.7148 132.031 89.3871 131.766C90.0593 131.501 90.796 131.444 91.5013 131.602C92.2065 131.76 92.8476 132.127 93.3412 132.654C94.1485 132.496 94.9225 132.201 95.6292 131.781C95.3604 132.614 94.7971 133.322 94.0444 133.771C94.7582 133.684 95.4552 133.493 96.1128 133.203C95.6295 133.926 95.0211 134.556 94.316 135.066Z" fill="#3F3D56"/>
<path d="M42.3807 102.041C43.6957 102.041 44.7617 100.978 44.7617 99.6658C44.7617 98.3539 43.6957 97.2904 42.3807 97.2904C41.0657 97.2904 39.9998 98.3539 39.9998 99.6658C39.9998 100.978 41.0657 102.041 42.3807 102.041Z" fill="#3F3D56"/>
<path d="M45.3569 93.7273H39.4044C38.6158 93.7296 37.8601 94.0432 37.3025 94.5995C36.7448 95.1558 36.4305 95.9097 36.4282 96.6965V102.635C36.4305 103.422 36.7448 104.176 37.3025 104.732C37.8601 105.288 38.6158 105.602 39.4044 105.604H45.3569C46.1455 105.602 46.9012 105.288 47.4588 104.732C48.0165 104.176 48.3308 103.422 48.3331 102.635V96.6965C48.3308 95.9098 48.0165 95.1559 47.4588 94.5995C46.9012 94.0432 46.1455 93.7296 45.3569 93.7273ZM42.3807 103.229C41.6743 103.229 40.9838 103.02 40.3965 102.628C39.8091 102.237 39.3514 101.68 39.0811 101.029C38.8107 100.378 38.74 99.6618 38.8778 98.9706C39.0156 98.2795 39.3558 97.6446 39.8553 97.1463C40.3547 96.648 40.9911 96.3086 41.6839 96.1711C42.3767 96.0337 43.0948 96.1042 43.7474 96.3739C44.4 96.6436 44.9578 97.1003 45.3502 97.6862C45.7426 98.2722 45.9521 98.9611 45.9521 99.6658C45.9519 100.611 45.5755 101.517 44.9058 102.185C44.2361 102.853 43.3278 103.229 42.3807 103.229ZM46.2497 96.6965C46.0731 96.6965 45.9005 96.6443 45.7537 96.5464C45.6068 96.4485 45.4924 96.3094 45.4248 96.1466C45.3572 95.9839 45.3396 95.8048 45.374 95.632C45.4085 95.4592 45.4935 95.3005 45.6184 95.1759C45.7433 95.0513 45.9023 94.9665 46.0755 94.9321C46.2487 94.8977 46.4283 94.9154 46.5914 94.9828C46.7546 95.0502 46.894 95.1644 46.9921 95.3109C47.0902 95.4574 47.1426 95.6296 47.1426 95.8058C47.1429 95.9228 47.12 96.0388 47.0752 96.147C47.0304 96.2552 46.9647 96.3535 46.8817 96.4363C46.7987 96.5191 46.7002 96.5847 46.5917 96.6293C46.4833 96.674 46.367 96.6968 46.2497 96.6965Z" fill="#3F3D56"/>
<path d="M42.2277 85.698C39.434 85.698 36.7029 86.5245 34.3799 88.073C32.057 89.6215 30.2464 91.8225 29.1773 94.3976C28.1082 96.9726 27.8284 99.8062 28.3735 102.54C28.9185 105.274 30.2639 107.785 32.2394 109.756C34.2149 111.726 36.7318 113.069 39.472 113.612C42.2121 114.156 45.0523 113.877 47.6334 112.81C50.2145 111.744 52.4207 109.937 53.9728 107.62C55.525 105.302 56.3534 102.578 56.3534 99.7906C56.3534 96.053 54.8652 92.4685 52.2161 89.8256C49.567 87.1827 45.9741 85.698 42.2277 85.698ZM49.5235 102.635C49.5202 103.737 49.0802 104.792 48.2995 105.571C47.5188 106.35 46.4609 106.789 45.3568 106.792H39.4043C38.3003 106.789 37.2423 106.35 36.4616 105.571C35.6809 104.792 35.2409 103.737 35.2376 102.635V96.6966C35.2409 95.5951 35.6809 94.5396 36.4616 93.7607C37.2423 92.9819 38.3003 92.5429 39.4043 92.5396H45.3568C46.4609 92.5429 47.5188 92.9819 48.2995 93.7607C49.0802 94.5396 49.5202 95.5951 49.5235 96.6966L49.5235 102.635Z" fill="#3F3D56"/>
<path d="M84.2231 45.7056C81.4293 45.7056 78.6982 46.5321 76.3753 48.0806C74.0523 49.6291 72.2418 51.8301 71.1727 54.4051C70.1035 56.9802 69.8238 59.8138 70.3688 62.5475C70.9139 65.2812 72.2592 67.7922 74.2347 69.7631C76.2103 71.734 78.7272 73.0762 81.4673 73.6199C84.2074 74.1637 87.0476 73.8846 89.6288 72.818C92.2099 71.7513 94.416 69.9451 95.9682 67.6275C97.5203 65.31 98.3488 62.5854 98.3488 59.7981C98.3488 56.0606 96.8606 52.4761 94.2115 49.8332C91.5624 47.1903 87.9695 45.7056 84.2231 45.7056ZM84.3077 68.028C83.5079 68.0273 82.7124 67.9123 81.9453 67.6866C82.3081 67.1356 82.59 66.5357 82.7824 65.905C82.8865 65.5339 83.3702 63.6187 83.3702 63.6187C83.5959 63.947 83.9003 64.2137 84.2557 64.3946C84.6112 64.5755 85.0063 64.6647 85.4052 64.6543C88.0838 64.6543 89.9029 62.2195 89.9029 58.9571C89.9029 56.4926 87.8085 54.1951 84.6277 54.1951C80.6693 54.1951 78.6715 57.027 78.6715 59.3876C78.6715 60.8202 79.2147 62.0896 80.3791 62.5647C80.4194 62.5859 80.4641 62.5973 80.5097 62.5978C80.5552 62.5983 80.6003 62.588 80.641 62.5676C80.6818 62.5473 80.7171 62.5176 80.744 62.4809C80.7709 62.4443 80.7886 62.4017 80.7958 62.3568C80.8367 62.2083 80.926 61.8409 80.9669 61.6888C80.9989 61.6088 81.0046 61.5208 80.9832 61.4374C80.9618 61.3541 80.9144 61.2796 80.8478 61.2248C80.4686 60.7683 80.2724 60.1878 80.2973 59.5954C80.291 59.0612 80.3937 58.5313 80.5991 58.038C80.8046 57.5446 81.1084 57.0981 81.4923 56.7256C81.8761 56.3531 82.3319 56.0623 82.8319 55.8711C83.3319 55.6798 83.8656 55.592 84.4007 55.6129C86.6366 55.6129 87.868 56.9751 87.868 58.7974C87.868 61.1951 86.804 63.2179 85.2266 63.2179C85.0249 63.2285 84.8236 63.1918 84.6388 63.1105C84.454 63.0293 84.291 62.9058 84.1628 62.7501C84.0346 62.5945 83.9449 62.4109 83.901 62.2143C83.857 62.0176 83.8599 61.8135 83.9096 61.6182C84.1589 60.5641 84.6462 59.4284 84.6462 58.6675C84.6462 57.9883 84.2816 57.4204 83.5227 57.4204C82.6298 57.4204 81.9156 58.3409 81.9156 59.5731C81.91 60.0251 82.0014 60.4731 82.1834 60.887C82.1834 60.887 81.272 64.7433 81.112 65.4188C80.9807 66.0457 80.9319 66.687 80.9669 67.3265C79.0813 66.5001 77.5697 65.0058 76.7241 63.1323C75.8785 61.2588 75.759 59.1391 76.3886 57.1828C77.0182 55.2264 78.3523 53.5724 80.1331 52.5402C81.9138 51.508 84.0149 51.1709 86.0302 51.5941C88.0456 52.0172 89.8322 53.1706 91.0449 54.8314C92.2575 56.4921 92.8101 58.5423 92.5959 60.5859C92.3817 62.6294 91.4159 64.5212 89.8851 65.8957C88.3543 67.2703 86.3672 68.03 84.3077 68.028V68.028Z" fill="#3F3D56"/>
<path d="M88.2417 83.9567C92.3477 83.9567 95.6762 80.5995 95.6762 76.4582C95.6762 72.3168 92.3477 68.9596 88.2417 68.9596C84.1357 68.9596 80.8071 72.3168 80.8071 76.4582C80.8071 80.5995 84.1357 83.9567 88.2417 83.9567Z" fill="#3F3D56"/>
<path d="M89.7288 80.4575H88.2151V74.7033C87.6564 75.228 86.9885 75.6231 86.259 75.8604V74.4749C86.7275 74.3029 87.163 74.052 87.5465 73.7332C87.9806 73.4089 88.3117 72.9664 88.5001 72.459H89.7288V80.4575Z" fill="#3F3D56"/>
<path d="M88.2417 83.9567C92.3477 83.9567 95.6762 80.5995 95.6762 76.4582C95.6762 72.3168 92.3477 68.9596 88.2417 68.9596C84.1357 68.9596 80.8071 72.3168 80.8071 76.4582C80.8071 80.5995 84.1357 83.9567 88.2417 83.9567Z" fill="#6C63FF"/>
<path d="M89.7288 80.4575H88.2151V74.7033C87.6564 75.228 86.9885 75.6231 86.259 75.8604V74.4749C86.7275 74.3029 87.163 74.052 87.5465 73.7332C87.9806 73.4089 88.3117 72.9664 88.5001 72.459H89.7288V80.4575Z" fill="white"/>
<path d="M42.2818 124.804C46.4329 124.804 49.798 121.447 49.798 117.305C49.798 113.164 46.4329 109.807 42.2818 109.807C38.1307 109.807 34.7656 113.164 34.7656 117.305C34.7656 121.447 38.1307 124.804 42.2818 124.804Z" fill="#3F3D56"/>
<path d="M41.3888 118.531C41.3631 118.934 41.4769 119.333 41.7113 119.661C41.7945 119.78 41.9045 119.878 42.0324 119.947C42.1603 120.017 42.3027 120.055 42.4481 120.06C42.5769 120.061 42.7041 120.032 42.8196 119.975C42.9352 119.919 43.0358 119.836 43.1135 119.733C43.3186 119.417 43.4123 119.041 43.3799 118.665C43.4118 118.27 43.3108 117.876 43.093 117.545C43.0104 117.436 42.904 117.348 42.7818 117.286C42.6596 117.225 42.5249 117.192 42.3881 117.19C42.2512 117.189 42.1158 117.219 41.9923 117.277C41.8687 117.336 41.7602 117.422 41.6752 117.529C41.4645 117.819 41.3631 118.174 41.3888 118.531ZM44.6491 115.256L43.2566 115.417C43.2457 115.172 43.1518 114.939 42.9903 114.754C42.9168 114.683 42.8294 114.627 42.7335 114.59C42.6376 114.553 42.5352 114.537 42.4326 114.541C42.2788 114.543 42.1279 114.583 41.9935 114.657C41.859 114.732 41.7452 114.839 41.6622 114.968C41.4522 115.253 41.3199 115.846 41.2653 116.748C41.4203 116.54 41.622 116.372 41.8541 116.257C42.0862 116.142 42.3422 116.083 42.6014 116.084C42.8956 116.083 43.1864 116.147 43.4531 116.271C43.7197 116.395 43.9558 116.576 44.1443 116.801C44.5854 117.314 44.815 117.974 44.7867 118.649C44.821 119.355 44.5788 120.047 44.1112 120.578C43.8734 120.824 43.5855 121.015 43.267 121.14C42.9484 121.265 42.6068 121.32 42.2651 121.301C41.9234 121.283 41.5897 121.191 41.2866 121.033C40.9836 120.874 40.7182 120.653 40.5084 120.383C40.0204 119.769 39.7764 118.762 39.7764 117.362C39.7764 115.926 40.0306 114.891 40.539 114.257C40.7704 113.954 41.0705 113.709 41.4148 113.544C41.7591 113.379 42.1378 113.297 42.5198 113.306C43.0379 113.288 43.5437 113.466 43.9348 113.806C44.3352 114.191 44.5878 114.704 44.6491 115.256Z" fill="#3F3D56"/>
<path d="M42.2818 124.804C46.4329 124.804 49.798 121.447 49.798 117.305C49.798 113.164 46.4329 109.807 42.2818 109.807C38.1307 109.807 34.7656 113.164 34.7656 117.305C34.7656 121.447 38.1307 124.804 42.2818 124.804Z" fill="#6C63FF"/>
<path d="M41.3888 118.531C41.3631 118.934 41.4769 119.333 41.7113 119.661C41.7945 119.78 41.9045 119.878 42.0324 119.947C42.1603 120.017 42.3027 120.055 42.4481 120.06C42.5769 120.061 42.7041 120.032 42.8196 119.975C42.9352 119.919 43.0358 119.836 43.1135 119.733C43.3186 119.417 43.4123 119.041 43.3799 118.665C43.4118 118.27 43.3108 117.876 43.093 117.545C43.0104 117.436 42.904 117.348 42.7818 117.286C42.6596 117.225 42.5249 117.192 42.3881 117.19C42.2512 117.189 42.1158 117.219 41.9923 117.277C41.8687 117.336 41.7602 117.422 41.6752 117.529C41.4645 117.819 41.3631 118.174 41.3888 118.531ZM44.6491 115.256L43.2566 115.417C43.2457 115.172 43.1518 114.939 42.9903 114.754C42.9168 114.683 42.8294 114.627 42.7335 114.59C42.6376 114.553 42.5352 114.537 42.4326 114.541C42.2788 114.543 42.1279 114.583 41.9935 114.657C41.859 114.732 41.7452 114.839 41.6622 114.968C41.4522 115.253 41.3199 115.846 41.2653 116.748C41.4203 116.54 41.622 116.372 41.8541 116.257C42.0862 116.142 42.3422 116.083 42.6014 116.084C42.8956 116.083 43.1864 116.147 43.4531 116.271C43.7197 116.395 43.9558 116.576 44.1443 116.801C44.5854 117.314 44.815 117.974 44.7867 118.649C44.821 119.355 44.5788 120.047 44.1112 120.578C43.8734 120.824 43.5855 121.015 43.267 121.14C42.9484 121.265 42.6068 121.32 42.2651 121.301C41.9234 121.283 41.5897 121.191 41.2866 121.033C40.9836 120.874 40.7182 120.653 40.5084 120.383C40.0204 119.769 39.7764 118.762 39.7764 117.362C39.7764 115.926 40.0306 114.891 40.539 114.257C40.7704 113.954 41.0705 113.709 41.4148 113.544C41.7591 113.379 42.1378 113.297 42.5198 113.306C43.0379 113.288 43.5437 113.466 43.9348 113.806C44.3352 114.191 44.5878 114.704 44.6491 115.256Z" fill="white"/>
<path d="M87.2381 163.153C91.3892 163.153 94.7543 159.796 94.7543 155.654C94.7543 151.513 91.3892 148.156 87.2381 148.156C83.087 148.156 79.7219 151.513 79.7219 155.654C79.7219 159.796 83.087 163.153 87.2381 163.153Z" fill="#3F3D56"/>
<path d="M86.3075 153.78C86.2998 153.907 86.3177 154.035 86.3601 154.155C86.4026 154.275 86.4687 154.385 86.5546 154.479C86.6408 154.564 86.7438 154.63 86.8568 154.673C86.9699 154.716 87.0908 154.736 87.2117 154.73C87.3341 154.736 87.4564 154.716 87.5709 154.673C87.6854 154.629 87.7895 154.562 87.8769 154.477C87.9634 154.382 88.03 154.271 88.0728 154.151C88.1157 154.03 88.1339 153.902 88.1265 153.775C88.1324 153.651 88.1136 153.528 88.0713 153.412C88.029 153.296 87.9639 153.19 87.8799 153.099C87.7948 153.014 87.6928 152.947 87.5804 152.904C87.4681 152.86 87.3479 152.84 87.2275 152.846C87.1041 152.84 86.9807 152.859 86.8653 152.903C86.7499 152.947 86.6449 153.015 86.5571 153.102C86.4724 153.193 86.4067 153.299 86.3638 153.416C86.321 153.532 86.3018 153.656 86.3075 153.78ZM86.1725 157.133C86.1514 157.483 86.2617 157.827 86.4819 158.1C86.5769 158.211 86.6953 158.299 86.8287 158.359C86.9622 158.419 87.1072 158.449 87.2536 158.447C87.3953 158.45 87.536 158.422 87.6655 158.364C87.7949 158.306 87.9098 158.22 88.0019 158.113C88.2164 157.839 88.3219 157.496 88.2981 157.149C88.314 156.827 88.2063 156.512 87.9969 156.266C87.902 156.158 87.7843 156.072 87.6522 156.014C87.5201 155.956 87.3769 155.928 87.2328 155.932C87.0783 155.921 86.9238 155.951 86.7841 156.017C86.6444 156.084 86.5241 156.185 86.4348 156.311C86.2639 156.551 86.1723 156.839 86.1725 157.133ZM86.0064 155.291C85.6666 155.159 85.378 154.922 85.1824 154.615C85.0113 154.331 84.9223 154.005 84.9253 153.674C84.9172 153.404 84.966 153.136 85.0685 152.887C85.1709 152.637 85.3248 152.412 85.5201 152.226C86.005 151.856 86.5988 151.655 87.2095 151.655C87.8202 151.655 88.414 151.856 88.8989 152.226C89.0956 152.412 89.2508 152.636 89.3542 152.886C89.4577 153.135 89.5071 153.404 89.4992 153.674C89.5064 154.017 89.4102 154.355 89.223 154.643C89.0357 154.932 88.7661 155.157 88.4489 155.291C88.8391 155.436 89.174 155.699 89.4062 156.044C89.6385 156.389 89.7564 156.798 89.7435 157.213C89.7615 157.54 89.71 157.867 89.5924 158.172C89.4747 158.477 89.2935 158.755 89.0608 158.985C88.828 159.216 88.549 159.394 88.242 159.51C87.935 159.625 87.607 159.674 87.2797 159.653C86.6545 159.676 86.0415 159.477 85.5487 159.093C85.2801 158.875 85.0664 158.597 84.9247 158.282C84.783 157.966 84.7173 157.622 84.7327 157.277C84.7288 156.868 84.8347 156.466 85.0393 156.111C85.2632 155.74 85.6029 155.452 86.0064 155.291Z" fill="#3F3D56"/>
<path d="M87.2381 163.153C91.3892 163.153 94.7543 159.796 94.7543 155.654C94.7543 151.513 91.3892 148.156 87.2381 148.156C83.087 148.156 79.7219 151.513 79.7219 155.654C79.7219 159.796 83.087 163.153 87.2381 163.153Z" fill="#6C63FF"/>
<path d="M86.3075 153.78C86.2998 153.907 86.3177 154.035 86.3601 154.155C86.4026 154.275 86.4687 154.385 86.5546 154.479C86.6408 154.564 86.7438 154.63 86.8568 154.673C86.9699 154.716 87.0908 154.736 87.2117 154.73C87.3341 154.736 87.4564 154.716 87.5709 154.673C87.6854 154.629 87.7895 154.562 87.8769 154.477C87.9634 154.382 88.03 154.271 88.0728 154.151C88.1157 154.03 88.1339 153.902 88.1265 153.775C88.1324 153.651 88.1136 153.528 88.0713 153.412C88.029 153.296 87.9639 153.19 87.8799 153.099C87.7948 153.014 87.6928 152.947 87.5804 152.904C87.4681 152.86 87.3479 152.84 87.2275 152.846C87.1041 152.84 86.9807 152.859 86.8653 152.903C86.7499 152.947 86.6449 153.015 86.5571 153.102C86.4724 153.193 86.4067 153.299 86.3638 153.416C86.321 153.532 86.3018 153.656 86.3075 153.78ZM86.1725 157.133C86.1514 157.483 86.2617 157.827 86.4819 158.1C86.5769 158.211 86.6953 158.299 86.8287 158.359C86.9622 158.419 87.1072 158.449 87.2536 158.447C87.3953 158.45 87.536 158.422 87.6655 158.364C87.7949 158.306 87.9098 158.22 88.0019 158.113C88.2164 157.839 88.3219 157.496 88.2981 157.149C88.314 156.827 88.2063 156.512 87.9969 156.266C87.902 156.158 87.7843 156.072 87.6522 156.014C87.5201 155.956 87.3769 155.928 87.2328 155.932C87.0783 155.921 86.9238 155.951 86.7841 156.017C86.6444 156.084 86.5241 156.185 86.4348 156.311C86.2639 156.551 86.1723 156.839 86.1725 157.133ZM86.0064 155.291C85.6666 155.159 85.378 154.922 85.1824 154.615C85.0113 154.331 84.9223 154.005 84.9253 153.674C84.9172 153.404 84.966 153.136 85.0685 152.887C85.1709 152.637 85.3248 152.412 85.5201 152.226C86.005 151.856 86.5988 151.655 87.2095 151.655C87.8202 151.655 88.414 151.856 88.8989 152.226C89.0956 152.412 89.2508 152.636 89.3542 152.886C89.4577 153.135 89.5071 153.404 89.4992 153.674C89.5064 154.017 89.4102 154.355 89.223 154.643C89.0357 154.932 88.7661 155.157 88.4489 155.291C88.8391 155.436 89.174 155.699 89.4062 156.044C89.6385 156.389 89.7564 156.798 89.7435 157.213C89.7615 157.54 89.71 157.867 89.5924 158.172C89.4747 158.477 89.2935 158.755 89.0608 158.985C88.828 159.216 88.549 159.394 88.242 159.51C87.935 159.625 87.607 159.674 87.2797 159.653C86.6545 159.676 86.0415 159.477 85.5487 159.093C85.2801 158.875 85.0664 158.597 84.9247 158.282C84.783 157.966 84.7173 157.622 84.7327 157.277C84.7288 156.868 84.8347 156.466 85.0393 156.111C85.2632 155.74 85.6029 155.452 86.0064 155.291Z" fill="white"/>
</g>
<defs>
<clipPath id="clip0">
<rect width="290" height="251" fill="white"/>
</clipPath>
</defs>
</svg>
